<?xml version="1.0" encoding="utf-8"?>
<!-- Generator: Adobe Illustrator 28.1.0, SVG Export Plug-In . SVG Version: 6.00 Build 0)  -->
<svg version="1.1" id="Layer_1" xmlns="http://www.w3.org/2000/svg" xmlns:xlink="http://www.w3.org/1999/xlink" x="0px" y="0px"
	 viewBox="0 0 2800 2800" style="enable-background:new 0 0 2800 2800;" xml:space="preserve">
<style type="text/css">
	.st2{fill:#8e888809;}
</style>
<g>
	<path class="st2" d="M0,2335.2c12.7-11.2,21-27.3,36.7-35.2c29.9-15.1,47.6-41.9,68-66.8c18.9-23.1,40-45.1,64.5-62.3
		c26.1-18.4,48.4-40.6,70.6-63.2c26.8-27.3,56.2-51.9,78.7-83.5c9.6-13.5,25.5-21,38.7-31.1c21.9-16.6,39.8-37.8,62-54.2
		c27.9-20.6,49.9-47.7,74.6-71.7c5.7-5.6,11-12.1,14.7-19.1c12.8-24.1,31-42.2,55.4-54.7c14.1-7.3,26-18.7,33.4-32.7
		c14.3-26.8,37.2-44.8,60.8-62.1c14.3-10.5,24.8-24.4,37.4-36.5c20.4-19.6,47.8-28.1,69.3-45.9c9-7.4,17.7-15.3,27.4-21.6
		c15.1-9.8,32.3-13.1,50.2-11.4c17.9,1.6,32.7-4.1,44.1-18.2c17.1-21.2,39.1-35.5,64.6-44.6c13.1-4.7,19.6-14.9,22.4-28
		c5.7-27.4,19.7-46.8,48.2-55.3c19.4-5.8,33-19.5,38.1-40.1c0.3-1.3,0.8-2.5,1.2-3.8c3.1-10.8,9.8-18.4,21-20.4
		c11.8-2.1,17.2,8,22.1,15.2c17.2,25.2,30.8,27.3,52.1,5.5c18.5-19,39.5-35.7,50.8-61c5.1-11.3,7.8-23.1,9.2-34.6
		c3.3-27.2,20.1-38.9,44-45.7c23.5-6.6,43.1-17.8,28.2-50.7c-0.9-2-1.1-4.3-1.8-6.4c-3.6-10.1-1-18.4,6.4-25.9
		c7-7,15.6-6.4,22.5-2.5c33.6,19,57,4.1,80.2-20.3c30.4-32,60.5-64.5,99.5-87.3c12.7-7.5,22.4-20.8,31.8-33.2
		c13-17.3,28.9-32,45.4-46.3c15.6-13.6,28.8-30.1,43.1-45.2c7.9-8.3,17.1-14.6,27.9-5.7c10.6,8.7,6.3,18.9-0.7,27.4
		c-24.7,30.1-52.1,57.6-84.1,80.1c-9.5,6.7-17.1,14.5-12.4,26.9c3.6,9.5,15.7,11.6,29,7.4c8.2-2.6,15.7-6.9,22.2-11.9
		c30.7-23.5,55.4-52.6,76.6-84.8c5.8-8.8,8.1-19.6,10.4-30c4-17.6,11.9-24.9,29.8-27.8c22.4-3.6,29.5-11.8,30.3-34.8
		c0.7-20.1,11.5-32.3,31-33.4c27.9-1.6,48.7-12.7,59.8-39.6c5.6-13.8,16.2-23,30-29c22.5-9.9,41-24.3,56.9-43.8
		c12.3-15,31.4-24.1,44.9-38.4c30.3-32.1,59.6-65.3,88.1-99c8.5-10,13.9-23,19-35.3c9.6-23.2,27.7-35.1,50.1-43.3
		c29.6-10.8,60.6-18.2,86.7-37.5c14.2-10.5,26.7-22.1,38.1-35.7c17.1-20.5,38.8-36.3,59.8-52.6c10.8-8.4,19.2-19.1,27.6-29.8
		c18.8-24.1,42.1-43.5,64.3-64.1c18-16.7,33.5-35.1,43.7-57.8c8.7-19.3,22.9-34.3,41.3-44.9c17.1-9.8,27.7-27.1,44.1-37.7
		c8.2-5.3,15.8-8,23.6,0.3c7.5,8.1,8.2,17.2,2.1,25.8c-11.5,16.3-25,30.7-42.9,40.4c-18.1,9.7-32,23-36,44.1
		c-4.4,23.5-17.4,40.5-36.9,53.8c-24.6,16.8-46.2,36.8-65.8,59.5c-24.9,28.7-57.2,50-83.1,78.2c-26.3,28.7-55.1,54.4-90.6,71.6
		c-13.2,6.4-26.5,12.9-40.7,16.5c-28.9,7.3-44.9,28.4-56.6,53.2c-10.1,21.5-19.6,43.3-34.7,61.7c-9.7,11.8-23.7,19-36.4,27.4
		c-30.5,20.2-55.1,46.2-77.2,74.9c-8,10.4-17.2,20.5-29.2,26c-26.3,12-45.9,31.2-61.3,54.7c-11.6,17.7-27.8,27.1-47.1,33.3
		c-29,9.3-32.6,19.5-34.2,45.7c-1.2,18.9-10.2,32-28.4,33c-25.9,1.4-39.9,16.4-51.3,37.1c-15.6,28.3-37.3,52.3-56.2,78.4
		c-13.3,18.3-32.2,25.6-55.4,24.9c-26.2-0.7-46.6,14.5-50.3,38.9c-1.2,7.6-0.9,15.7-3.9,23.6c-5.3,13.7-13.6,22.8-27.3,27.5
		c-24.9,8.6-41.4,23.3-42,52.1c-0.4,16-11.8,26.4-22.6,23.9c-16.4-3.7-27.4-21.2-22.6-37c6.4-21,20.8-36.2,37-50.1
		c18.1-15.5,37.9-29.3,51.3-49.6c8.3-12.5,8.5-23,0-28.7c-10.9-7.4-20.2-3.5-28.7,5.3c-27.5,28.4-56.9,54.9-82.4,85.3
		c-9.9,11.8-22.8,18.5-37,23.3c-15.9,5.3-29.2,14-35.6,30.2c-9.2,23.3-25.9,39.6-46.8,52.1c-12,7.2-20.9,17.2-26.7,29.6
		c-11.7,25-28.1,47-46.1,67.2c-16.4,18.4-31.2,38.4-50.6,54c-16.6,13.4-25.9,14.3-43.3,1.6c-16.6-12.1-31.2-11.1-40.4,5.9
		c-9.6,17.8-26.4,21.5-43.6,24.4c-7.3,1.2-12.6,5-17.3,9.3c-7.4,6.8-9.2,15.6-3.4,24.4c5,7.7,12.7,9.4,21.4,6.5
		c5.5-1.8,11-3.6,16.4-5.6c8.9-3.2,18.7-2.9,23.3,4.9c4.5,7.7,2.8,17.7-4.1,25.2c-14.7,16.2-33.8,22.3-53.9,16.3
		c-42.5-12.6-74.9,4.2-100.1,35.8c-15.1,19-35.5,33.2-61.1,30.8c-38.3-3.5-66.2,14.7-92.2,38.7c-36.9,34.1-75.3,66.4-110.5,102.3
		c-10.4,10.6-19.7,22.2-28.8,33.9c-7.2,9.3-17.7,15.4-25.9,23.8c-25.4,26-50.7,52.1-76.4,77.7c-31.2,31.1-63.4,61.5-97.8,89.5
		c-22.6,18.4-45.6,36.8-66.6,57.2c-38.8,37.8-76.2,77.3-115.4,114.7c-36.4,34.8-76.1,66.4-108.8,104.6c-27,31.5-61.7,54.1-89.9,83.8
		c-12.3,13-22.8,27.9-38.8,37.1C0,2371.6,0,2353.4,0,2335.2z"/>
	<path class="st2" d="M120.3,2800c4.8-9.8,14.6-11.5,23.5-13.4c22.3-5,40.5-15.1,48.2-37.7c11.2-32.8,39.4-48.4,65.3-66.5
		c1.5-1,3.2-1.9,4.3-3.2c24.8-29.4,54.7-53.4,83.6-78.4c21.5-18.6,37.6-42.2,54.8-64.8c8.8-11.6,20.6-20.2,32.4-28.5
		c34.9-24.8,63.5-55.8,90.5-88.8c11.5-14,24.8-26.4,39.7-36.8c16.8-11.7,31.9-24.9,43.7-41.7c11.3-16,29-25.5,41.7-39.7
		c26.7-29.9,54.6-58.2,86.2-83.1c15.6-12.2,33.1-21.1,49.4-32.1c24.2-16.4,48-33.4,67.8-55c11.8-12.9,25.8-22.2,41.3-29.8
		c27.7-13.7,29.9-28,8-50c-7.7-7.7-16.3-15.2-9.9-27.9c6.8-13.4,16.2-23.2,32.6-23.8c15.4-0.6,19,10.2,22.9,21.7
		c6,17.3,20.3,24.5,33,16.3c7.6-4.8,14.2-11.3,18.8-19.2c12.2-21.1,11.1-29.7-5.8-47.7c-14.4-15.3-14.2-31,0.4-46.3
		c2.8-3,6.3-5.5,8.6-8.8c6-8.7,14.7-11,23.9-8.5c9.3,2.5,12.5,11.6,13.5,20c1.3,10.3,3.2,20.1,14.5,23c10.1,2.6,18.8-1.9,24.8-10.2
		c7-9.6,8.3-20.1,2.7-31c-1.8-3.6-4.1-6.9-6.2-10.3c-5.7-9.1-8.9-18.8,0.8-26.5c9-7.2,20.1-5.7,28.9,0.5
		c10.6,7.5,21.8,10.6,34.2,9.3c13.9-1.5,24.5-9.1,30.2-21.8c3.1-6.9,3.6-14.5-2-21.6c-6-7.6-13.8-6.2-21.2-5.3
		c-6.1,0.8-12.1,3.2-17.7,5.8c-9.3,4.4-17.3,1.8-23-5.3c-6-7.5-3.9-16.5,0.6-24.1c9.8-16.5,40.5-25.3,59-18.2
		c8.9,3.4,17.4,9.7,27.7,7.2c13.7-3.4,21.3-14,21.8-33c0.6-22.1,10.4-33.2,33.8-31.1c23.1,2.1,37.7-10.2,34.9-35.7
		c-0.8-7.5-1.1-15.2,2.4-22.6c5.2-10.9,12.6-18.4,25.5-18.5c11.4,0,22.8,0.2,34.2-0.1c14.3-0.3,22.3-8.3,22.4-22.9
		c0-8,0.1-16-2.1-24.1c-2.5-9.3,0.4-18.4,7.9-25.8c17.7-17.6,39.4-26.3,63.6-28c19-1.3,35.5-5.6,45.3-23.4
		c13.7-24.9,39.9-34.6,60.6-51.1c24.4-19.5,46.8-41.3,51.6-74.6c1.6-11.5,8.3-18.5,17.7-23.7c14.9-8.2,27.1-18.6,34.5-34.6
		c4.6-10.1,13.6-16.4,23.8-20.9c24.2-10.6,33.5-19,24.8-49.2c-9-31.2,16.9-50.8,41.8-50.8c30.1,0,54.7-10.5,75.1-32.9
		c15.6-17.2,32.5-33.2,49.2-49.4c23.4-22.8,47.4-45,70.6-68c56.4-55.9,107.8-116.5,163.9-172.6c31.3-31.3,60-65.2,89.4-98.3
		c21.3-24,50.8-37.5,70.7-61.8c27.7-33.8,60.2-64.2,77.3-105.9c5.6-13.7,17.4-23.1,30.6-29.3c29.6-13.8,50.3-37.5,69.8-62.4
		c5.3-6.7,11.9-11.2,19.2-13.6c9.2-3,17.9,0.5,24.2,8.2c6.2,7.6,4.2,16.1,1.7,24.3c-5.1,17-21,24.4-33,34.7
		c-40.8,35.3-80.1,71.7-112.9,114.8c-25.1,32.9-55.2,61-86,88.4c-3.7,3.3-7.2,7-10.9,10.3c-46.1,41.6-86.8,88.7-129.7,133.4
		c-26.1,27.2-53.2,53.4-79,80.9c-22,23.4-43,47.8-65.6,70.5c-17.1,17.2-36.1,32.4-55,47.7c-13.6,11-25.7,24-33.5,40.3
		c-8,16.8-20.4,29.7-37.4,37.3c-21.9,9.8-20.3,23.5-7.1,39c8.4,9.9,15.9,19.3,8.9,33.7c-4.7,9.7-12.8,14.6-22.1,14.7
		c-10.1,0.1-16.9-7.8-21.2-16.6c-2.9-5.9-4.7-12.5-7.2-18.7c-4.3-10.9-13.3-16.1-24.2-16c-12.7,0.1-21.2,7.9-26.2,19.5
		c-4.4,10.3-1.7,19.1,6.4,26.3c5,4.5,9.9,9.6,15.7,12.6c9.2,4.8,12.6,12.2,10.1,21.1c-2.7,9.7-9.7,16-20.8,16
		c-8.2-0.1-16.6-1-24.6,0.3c-15.9,2.7-28.5,10.2-38,24.5c-37.6,57.4-84.5,106.5-138.1,149.1c-19.3,15.3-34.7,33.7-48.1,54
		c-13.4,20.3-23.9,23.9-46.5,17.2c-6.7-2-13.2-5.8-20.8-4.1c-15.8,3.5-24.1,17.5-20.1,33.9c8.9,36.7-5.6,58.4-42.9,64.1
		c-5.7,0.9-11.4,2.1-17,3.5c-17.5,4.3-28.2,15.9-30.8,33.3c-3.5,23.8-15.9,37.6-39.4,43c-15.6,3.6-25.2,15.5-34.6,28.1
		c-21.5,29-41.3,59.2-61.8,89c-10.9,15.9-29.2,21.2-44.5,30.8c-8.1,5.1-14.7,11.3-20.2,19.4c-11.2,16.6-24.2,31.7-43.7,38.8
		c-22,8-32.7,25.4-40.6,45.6c-4.4,11.3-10.7,21.3-18.7,30.6c-9.9,11.5-22.3,18.1-36.8,20.4c-19.6,3.1-31.8,14.4-40.7,31.4
		c-9.1,17.4-22,31.3-40.4,40.1c-42.1,20-78.1,48.7-112.1,80.3c-27.2,25.3-54.7,50.2-81.3,76.1c-31,30.1-60.4,62-92.1,91.3
		c-22.6,20.8-47.6,39.4-67.2,63.1c-18.1,21.8-38.9,40.4-60,58.7c-21.3,18.5-40.4,39.2-60.7,58.6c-16.7,15.9-31.3,33.6-46.4,51.1
		c-12.6,14.7-27.6,27.5-42.8,39.6c-7.5,6-14.2,12.6-20.8,19.3c-16.4,16.9-34.5,31.8-52.4,47c-21.8,18.4-35.2,44.1-53.5,65.6
		C180.5,2800,150.4,2800,120.3,2800z"/>
	<path class="st2" d="M992.6,2800c-0.6-8,3.9-13.4,9.1-18.7c21.9-22.9,44.8-44.6,71-62.6c28.9-19.8,53.2-44.7,77.6-69.5
		c28.9-29.4,58.7-57.8,85.2-89.6c10.3-12.3,25.5-21.3,39.9-29.1c19.3-10.4,34.2-24.5,44.9-43.2c12-20.9,29.4-37.5,50.7-46.6
		c31.8-13.7,51.1-36.8,64.8-67.1c10.3-22.8,30-33.2,54.3-32.5c24.7,0.7,32.4-9.9,38.8-32c2.9-10.1,4.9-20.6,10.2-30.3
		c9.5-17.3,17.7-21.2,37.2-15c5.1,1.6,10.2,3.2,15.4,4.7c10.3,2.9,19.8-2.8,25-14.1c4.9-10.9-0.4-18.4-8.4-23.6
		c-8.1-5.3-17.6-8.5-26.5-12.7c-22.8-10.7-17.1-32.5-3.2-43.3c56.3-43.9,113.7-86.4,164.8-136.8c20.1-19.8,42-37.5,59.4-60.1
		c13.2-17,32-25.6,52.4-30.6c16.6-4.1,30.2-13,39.5-26.5c11.4-16.6,26.9-28.4,44.3-36.1c26.4-11.6,46-31.3,66.4-50
		c34.8-32,66.8-67,102.2-98.2c34.6-30.5,69.6-60.5,101.4-94.1c19-20,34.9-42.8,55.7-61c34-29.6,64.2-63,96.9-93.9
		c9.7-9.1,20.6-17.8,32.4-23.6c27-13.2,43.5-36.4,61.6-58.5c21.7-26.5,42.9-53.7,74.4-69.9c7.1-3.7,14.7-6.3,22.1-9.4
		c13.4-5.6,24.5-14.8,30.3-27.6c13.1-28.6,34-48.8,61.2-63.3c22.2-11.8,37.7-31.4,56.1-47.6c17.9-15.8,40.7-8.2,46.2,14.6
		c2.8,11.8-3,21.8-12.4,27.1c-32.5,18.3-60.4,42.9-90.5,64.5c-11.2,8-18.5,19.8-25.5,31.2c-12.1,19.4-27.4,33.3-49.5,41
		c-31.1,10.9-51,36.1-71.2,60.3c-25,29.9-48.8,60.2-86.7,76.2c-26.5,11.1-46.1,32.6-61.9,56c-15.5,22.9-35,41.4-57.5,56.2
		c-22.1,14.5-36.7,35.5-53.2,54.8c-18.3,21.5-38.2,41.5-59.1,60.2c-23.7,21.3-48.7,41.2-72.9,62.1
		c-59.1,51.3-111.3,110.6-177.4,153.9c-11.7,7.7-14.8,22.6-8.9,36.1c12.9,29.5,11.3,37.6-11.7,60.7c-32.9,32.9-66.3,65.2-98.4,98.8
		c-22,23-47.9,40.8-72.6,60.2c-3.9,3-8,6-11.2,9.7c-29.1,33.1-67,56.6-97.2,88.6c-7,7.4-17.5,9.8-26.9,10.7
		c-28.7,2.5-39,22.3-45.2,45.9c-2.8,10.7-7.4,20.4-14.3,28.4c-7.4,8.7-17.4,13.5-29.6,8.1c-5.7-2.6-11.3-5.3-17.3-7.1
		c-16.1-4.8-28.9,4.8-29.4,21.7c-0.2,7.3,0.7,14.7-0.6,21.8c-2.9,15.5-13.3,24.2-27.8,29.7c-35.7,13.6-64.5,36-84,69.6
		c-10.4,17.9-26.5,28.7-46.4,33.8c-28,7.1-48,24.5-63.4,48.3c-16.8,25.8-37.3,48-62.5,66.1c-8.4,6-15.4,14.3-22.3,22
		c-21.8,24.4-47.5,44.2-74.2,62.7c-14.7,10.2-26.4,22.9-34.4,38.9C1030.9,2800,1011.7,2800,992.6,2800z M1864.4,1985.3
		c-6.5-1-11.7,2-17.4,5.1c-13.1,6.9-20,19.6-28.9,29.9c-33.8,39.1-72.9,72.2-112.7,104.7c-23.6,19.3-49,36.6-70.3,58.6
		c-9.3,9.6-10.8,25.8-3.6,34.3c6.7,7.9,25.7,7.9,35.2-0.7c4.6-4.2,8.6-9.1,12.7-13.9c7.9-9.1,14.2-19.4,24.1-27.1
		c27.2-21.2,54.5-42.3,80.8-64.7c22.6-19.2,39.6-43.4,61.8-62.7c10.5-9.2,21.3-18.2,30.8-28.4c6.4-6.9,9.4-15.6,4.9-25.8
		C1878.2,1986.6,1872.7,1984.1,1864.4,1985.3z"/>
	<path class="st2" d="M0,1804.7c42.5-30.2,76.7-68.5,97-116.2c17.1-40.3,45.9-68.5,76.2-97.8c28-27.2,59.7-49.5,88.1-75.8
		c15.5-14.3,22.4-32.2,22.9-52.6c0.3-12.5,6-20.5,16.7-25.3c9.9-4.5,16.9,2.9,24.1,7.8c3.7,2.5,6.5,6.3,9.7,9.6
		c17.8,18,18.1,34-2.3,48.8c-25.2,18.3-45.2,41.8-67.7,62.7c-22.5,21-45,41.9-67.9,62.4c-32.4,29.1-58.1,63.8-81.8,100
		c-10.1,15.4-24.1,26.9-36.4,40.2c-13.2,14.3-14,30.4-0.9,35.2c13.2,4.8,23.4-4.5,30.2-13.2c41.7-53.7,87.7-103.7,137.5-149.7
		c29.7-27.5,56.9-57.6,87-84.5c22.7-20.3,46.2-40.1,71.2-57.3c26.2-17.9,45-40.9,58.3-68.8c6.3-13.2,16.9-21.3,29.1-26.7
		c33.8-14.9,58.2-39.6,78-69.8c8.6-13.2,18.2-25.7,30-36.4c19.5-17.6,34.2-39.8,53-58c37.1-35.8,74.3-71.5,113-105.7
		c13.2-11.6,23.4-26.5,36.4-38.4c35.3-32.5,69.9-65.8,112.5-89.4c14.9-8.3,23.2-23.2,26.8-40.4c5.2-24.8,17.7-34,42.9-35.9
		c18.6-1.4,30.4-5.9,38.9-34c4.8-15.8,12.4-29.6,24.6-40.9c7.3-6.7,16.1-10.2,24.5-5c9.3,5.8,12.8,15.1,8.6,26.7
		c-2.5,7-6.4,13-10.7,18.4c-28.7,36.4-14.3,71.9,23.6,88.2c6.4,2.8,13.3,5.2,17,12.5c6.7,13.1,0,26.2-14.6,27.3
		c-6.3,0.5-12.8-0.2-19.1,0.1c-16.2,0.8-23.5,13-16.7,27.6c1.5,3.2,4,5.9,5.8,9c11.5,18.8,2.5,35.6-19.8,37.2
		c-17.3,1.2-29.3-5.8-36.8-21.6c-8.8-18.6-7.4-34.5,4.7-47.3c9.2-9.8,19.6-18.2,24-31.9c3.3-10.3-0.4-17.4-7.3-24.1
		c-6.8-6.6-14.1-10.5-24.1-7.9c-17.2,4.5-26.5,17.3-29.7,32.9c-5.5,26.4-19.8,43.4-45.7,50.1c-23.9,6.2-39.5,24.2-57.1,39
		c-37.9,32-69.9,70.4-107.1,103c-26.3,23-47.5,50.6-74.1,73.2c-14.1,12-22.8,30.2-36.3,43.1c-28.1,26.7-54.2,54.6-76.2,86.8
		c-13.2,19.3-34.4,31.4-54.4,43.5c-16.5,10-28.7,23.7-39.6,39.6c-21.8,31.9-48.7,59.3-80.7,81.2c-16.1,11-35.7,15.5-51.2,28.7
		c-13.5,11.6-26.6,23.6-37.9,37c-10,11.9-20.4,23.3-31.9,33.3c-39.4,34.5-76.2,71.8-111.5,110.3c-30.1,32.8-63,61.5-98.9,87.2
		c-8.4,6-12,15.8-13.3,25.4c-1.7,12.9,13.8,21.2,27.2,15.1c4.8-2.2,10.5-4.5,13.5-8.4c22-28.6,54.1-46.6,76.9-74.1
		c20.1-24.2,43.2-45.4,65.3-67.5c33.7-33.8,68.4-66.5,102.4-100c10.3-10.1,19.1-21.8,29.5-31.8c11.6-11,28.6-7.3,31,6.4
		c1.3,7.6-2.4,14.9-7,21c-18.1,24.1-41,43.7-62.5,64.4c-3.4,3.3-7.7,6.2-11.1,9.6c-51.3,51.2-101.6,103.4-154.2,153.1
		c-19.6,18.5-35.2,41.1-57.9,56.4c-10,6.7-20.8,11.6-32.4,10.8c-29.5-2.1-48.2,14.4-64.6,35.1c-5.1,6.4-10.2,12.4-16.8,17.1
		c0-21.9,0-43.8,0-65.6c11.7-6.6,16.1-18.9,22.2-29.5c7.9-13.8,17.1-27.2,21.2-42.8c1.9-7.2,2.3-16.3-6.6-20.1
		c-7.6-3.3-15.4-2.4-21.5,4.6c-4.9,5.7-10.2,11.1-15.3,16.7C0,1833.9,0,1819.3,0,1804.7z"/>
	<path class="st2" d="M2633.2,0c-9,5.8-19.8,1.7-29.4,6c-17.9,8-27.9,24.1-16.8,44.1c1.5,2.7,3,5.5,4.7,8.1
		c19.3,28.4,6.1,54-28,56.2c-32.1,2.1-57.3,17.4-82.1,35.5c-39.1,28.6-68.2,66-96.7,104.4c-11.8,15.9-27.9,28.7-42.1,42.8
		c-17.3,17.2-34.4,34.6-49,54.3c-11.7,15.7-28.9,25.7-43.8,38.1c-12.6,10.4-23.6,21.9-34.2,34.3c-23.7,27.8-53.5,46.5-90,51.7
		c-32.4,4.6-61.4,14.8-83.8,40.3c-14.1,16-22.1,35.6-33.6,53.1c-12.2,18.5-29.8,25.1-50.8,20.2c-12.6-3-24,0.6-33.3,9.3
		c-9.9,9.3-8.9,19.4,2,28c3.2,2.5,6.6,4.7,10.1,6.7c8.8,4.8,17.4,9.3,16.2,21.8c-1.2,12.8-10.1,19.9-19.7,25.6
		c-10.6,6.3-19.9,2.2-27.1-6.9c-3-3.8-5.3-8.2-8.1-12.3c-9.3-13.9-24.1-18.3-34.3-10.3c-12.6,9.9-14.2,27.4-3.3,39.9
		c3.6,4.1,7.8,7.7,11.5,11.6c6,6.2,9.5,13.4,5.6,22c-4.1,9.1-10.6,15.6-21.2,16.4c-10.2,0.8-19.7-2-27.7-8.2c-5.2-4-11.3-5.6-17-7.5
		c-9.2-2.9-16.7,1.7-22.5,8.7c-5.4,6.6-8.6,13.7-3.4,22.2c3.5,5.7,6.3,11.8,9.8,17.4c5.4,8.5,6.8,17.9-0.6,24.7
		c-6.5,6-14.9,11.8-25.5,5.9c-6.2-3.5-12.9-6.6-19.7-8.2c-19.9-4.5-34.2,8.1-37.5,32.1c-4.2,30.6-15.5,45.9-44,48.9
		c-37.8,4-66,22-91,49.1c-25,27.1-50.3,54.4-78.4,78.1c-44.5,37.5-85.7,78.1-126.7,119.1c-3.1,3.1-6.9,5.7-10.8,7.8
		c-8.9,4.8-18.9,7-25.9-1.5c-6.5-8-4.9-18.1,2.1-26c9-10.2,19.5-18.7,29.8-27.6c16.4-14,29-31.9,44.7-46.5
		c35.6-33.1,74.6-62.4,109.4-96.6c23.4-23,46.5-46.3,69.6-69.6c13.6-13.6,29.1-23.2,48.3-26.8c18.9-3.5,31-15.5,37-33.3
		c7.2-21.2,20.4-36.9,40.9-45.7c17.6-7.5,27.5-19.2,31-38.6c3.9-21.9,16.1-29.8,39.4-29.9c18.7-0.1,27.9-9.3,28.4-28.2
		c0.6-22.4,11.6-38,33.2-45.4c15.4-5.3,27.3-13.4,35.7-28.3c10.6-18.8,26.1-33.4,48.1-38.5c28.7-6.6,48.3-24.7,62.5-49.2
		c11.5-20,28.3-33.8,49-42.1c19.1-7.7,28.7-22.5,33.3-40.7c4.4-17.2,12.6-31.5,25.4-43.3c48-44.6,93.4-91.8,140.5-137.3
		c13.3-12.9,26.9-25.5,40.6-38.1c5.9-5.4,13-9.7,21.7-9.2c6.5,0.3,13.4-1.9,16.9,7.2c3.3,8.4,1.9,15.4-3.7,21.1
		c-10.8,10.9-21.8,21.9-34,31.1c-12,9.2-22.1,20.1-32.7,30.6c-27.9,27.5-55.5,55.3-83.2,83.1c-12.1,12.1-25.2,23.1-38.8,33.5
		c-6.9,5.3-11.4,12.8-14.9,20.5c-2.6,5.8-3.6,12.5,1.6,17.7c5.3,5.2,11.4,6.9,19.2,4.4c8.4-2.7,15.9-6.9,21.5-13
		c34.2-37.1,75.3-67.1,109.2-104.2c20.8-22.8,43.5-43.4,65.6-64.7c18.9-18.2,28.2-44.4,49.5-60.3c25.8-19.3,43.2-46.8,67.4-67.6
		c19.6-16.8,42.7-27.3,65.9-38.1c11.8-5.5,25.4-8.2,32.7-21.9c4.8-9,2.5-16.5-2.7-22c-5.1-5.4-12.1-9.5-21.7-6.4
		c-21.7,7-37.2,22.7-54.5,35.9c-6.8,5.1-13.2,10.2-22.8,9.5c-12.4-1-18.5-10.4-13.7-22.3c3-7.5,9.1-12.6,14.9-17.3
		c25.5-20.5,51.5-40.4,85.9-43.3c0.5,0,1-1.3,1.5-2C2567.6,0,2600.4,0,2633.2,0z"/>
	<path class="st2" d="M0,2756.2c8.7-16.2,23.6-23.4,39.6-31.3c35.3-17.5,60.3-46.2,75.2-82.9c7.5-18.5,20.8-29.7,40.1-30.2
		c24.8-0.7,40-12.9,46.8-35c6.6-21.6,22.2-30.7,41.9-36.6c20-6,40.9-10.2,55.9-27.1c5.1-5.8,9.9-11.7,13-18.6
		c10.8-23.7,27.1-42.7,50-54.7c28.8-15.1,49.4-38.7,68-64c12.3-16.8,28-29.5,43.7-42.2c23.1-18.7,42.1-41.1,61.1-63.4
		c8.6-10.2,18.5-19,28.7-26.2c27.1-19.1,40-44.9,43.1-76.8c1.5-15.6,8-27.1,24.1-31.8c21.9-6.5,31.6-23.1,35-44.3
		c5.3-32,23.9-52.3,54.4-61.6c14.8-4.5,26.3-13.3,36.7-23.9c10.9-11.2,23.3-19.1,38.4-23.5c18.4-5.4,33.8-15.8,47.5-29.2
		c39.3-38.3,80.2-75,119.5-113.3c24.4-23.7,49.6-46.8,72.7-71.7c18.3-19.6,36.4-39.4,56-57.5c30.7-28.4,61.2-56.9,94.7-82.4
		c24-18.2,46.5-38.8,67.4-60.9c7-7.4,9.5-17,12.6-26.3c8.4-24.4,22.1-34.6,47.8-34.1c14.8,0.3,28-5.3,41.6-9.3
		c15.5-4.5,26.6-0.7,31.8,11.4c4.7,10.9-1,21.8-14.6,29.2c-12.1,6.6-25.9,6-38.7,9.4c-12.9,3.4-23.7,12-25.7,23.5
		c-5.1,28.8-21,46.9-46.2,59.3c-7.6,3.7-13.9,9.8-19.8,16.2c-32,34.5-67.9,64.6-106,92.2c-8.3,6-17.8,10.2-26.4,15.8
		c-17.5,11.3-32.8,24.7-41.9,44.2c-17.2,36.8-50.9,56.7-82,79c-17.3,12.4-31.2,27.8-42.9,45.4c-10.4,15.6-23.4,28.3-40.1,37.3
		c-14.7,8-27.4,18.8-38.7,31.2c-12.1,13.3-26.9,22.2-43.9,27.5c-28.4,8.8-50,29-74.5,44.3c-32.1,20.1-50.3,47.3-49,86.4
		c0.6,17.1-9.7,28.1-26.6,32.1c-16.8,3.9-28.9,13.6-31.9,30.5c-5.1,29-20.8,49.9-44.5,66c-20.5,13.9-35.8,33-49.7,52.9
		c-10.9,15.7-26.6,25.2-41.1,36.3c-20.9,16.1-39.3,33.7-52.3,57.2c-10.9,19.6-26.6,34.4-48.9,41.9c-18.9,6.4-32.1,19.7-41.5,38
		c-13.5,26.4-28.8,52-57.9,64.5c-9.3,4-19.3,7.1-29.2,8.9c-21.9,3.9-31.6,18.9-35.4,38.3c-5.7,29.5-17.7,40.5-47.8,41.4
		c-26.2,0.7-42.3,16-45.5,40.3c-0.9,6.6-2,13.3-3.1,19.9c-3.1,18.3-13,27.2-34.4,29.8c-20.2,2.5-33.1,13.1-41.9,30.7
		c-3.7,7.5-8.9,14.3-13.4,21.5c-17.3,0-34.6,0-52,0C0,2785.4,0,2770.8,0,2756.2z"/>
	<path class="st2" d="M265.2,2800c34.6-40.1,74.6-74.8,112.5-111.6c28.5-27.8,55-57.6,82.2-86.8c19.5-20.9,40.6-40.1,62.3-58.6
		c2.4-2,5.1-3.7,7.3-5.9c37.4-36.5,74-73.9,112.5-109.1c31.6-28.9,59.7-61.2,92-89.1c29.3-25.3,55.4-53.5,80.8-82.4
		c20.6-23.4,43.7-42.1,70.9-56.5c10-5.2,20.8-7.7,31.7-9.8c18-3.4,33.4-10.5,40.3-29.1c9-24.1,24.8-39.3,51.2-43.5
		c17-2.7,29.1-14.3,37-28.9c17.7-32.8,43-58.5,71.2-82.1c11.8-9.9,22.4-21.4,32.9-32.8c12.9-14,29.4-23.9,42.7-37.3
		c34.7-35,71.4-68.4,98.2-110.6c9.5-15,28.1-20,42.4-12.4c10.3,5.5,14.1,17.3,9.7,28.3c-9.1,22.5-30,34.4-46.3,50
		c-11.5,11.1-24.1,21.6-36.1,32.4c-54,48.7-104.8,100.9-155.8,152.8c-15.7,15.9-27.6,35.1-40.1,53.7c-11.2,16.7-25.7,27.9-45.8,32.3
		c-24.4,5.3-36.8,21.7-39.8,52.2c-3.8,38.9-21.2,69.5-53.2,92.1c-8.8,6.2-17.5,12.6-25.1,20.1c-45.3,44.7-89.2,90.9-136.7,133.3
		c-33.6,30-62.7,64.7-96.9,93.9c-64,54.6-122.8,114.4-181.3,174.6c-22.7,23.3-46.3,46-67.5,70.8c-16.4,0-32.8,0-49.2,0
		c37.2-41.7,78.8-79.1,116.7-120.1c48.3-52.2,102.2-98.9,154.3-147.5c70.1-65.4,138.2-133,206.2-200.5c17.3-17.1,32.4-36.5,52-51.3
		c9.7-7.3,20.2-13.6,28.2-22.9c6.3-7.3,9.7-16.1,3.3-24.5c-6.5-8.5-15.6-9.7-25.4-4.5c-22.9,12.2-42.6,28.9-59.5,48.2
		c-19.2,21.9-37.9,44.1-59,64.4c-36.1,34.6-70.5,70.9-107.6,104.5c-13.7,12.5-26.8,25.7-40.4,38.3c-31.4,29.4-63.5,58.1-94.1,88.4
		c-57.2,56.6-113.2,114.5-169.6,171.9c-18.2,18.5-36.2,37.1-54.2,55.6C301.7,2800,283.5,2800,265.2,2800z"/>
	<path class="st2" d="M1815.6,0c-5.8,6.3-11.4,12.8-17.5,18.8c-50,49.3-91.3,106.7-143.1,154.3c-10.5,9.7-13.4,24.1-19.3,36.5
		c-7.3,15.5-18.6,23.3-34.9,25.6c-20.5,2.9-31.9,13.3-36.6,33.7c-5.5,24.1-17.8,43-37.9,58.1c-15.9,11.9-29.7,26.5-43.9,40.6
		c-35.6,35.2-72.4,69.5-105.9,106.7c-27.1,30.1-57.7,56.3-86.1,84.8c-42.6,42.7-87,83.8-131.2,124.7c-26.3,24.3-45.1,53.3-67.2,80.2
		c-14.7,17.9-33.1,31.7-50.4,46.5c-18.4,15.7-34.8,33.2-51.9,50c-14.3,14-29.4,25.9-48.8,32.4c-17.6,5.9-30.4,18.8-35,36.2
		c-7.9,29.9-28.4,48.4-51.4,66.1c-25.5,19.7-49.7,41.3-75,61.3c-31.8,25.2-55.6,58.3-85.2,85.8c-25.4,23.7-51.8,46-78.7,67.9
		c-10.7,8.7-19.7,19.9-28.4,30.9c-17.9,22.5-40.1,40.9-53.4,68.1c-12.2,24.9-37.3,40.8-60.5,56.5c-3.2,2.2-6.8,4-11.1,4.4
		c-16.8,1.6-29-4.2-32.3-15.7c-3.6-12.8,2.3-23.5,18-31.7c19.8-10.4,39.3-21,53.3-39.3c9.9-13,13.9-29.1,23.2-42.2
		c17.5-24.5,41.8-42.4,63.8-62.3c31.7-28.5,68.8-51,97.4-83.1c11-12.3,19-27.8,31.2-38.5c38.2-33.3,76-67.3,117-97.3
		c14.2-10.4,26.2-23.1,30-40.2c7.9-35.3,31.4-55.9,61.5-71.5c28.8-14.9,55-33.6,78.1-56.5c18-17.8,35.9-35.6,56.1-51.1
		c17.3-13.3,26-34.1,39.3-51c4.8-6.1,9.5-12.7,15.7-16.7c15.2-9.9,25.8-24.1,36.6-37.7c25-31.4,57.5-54.5,86.8-81.1
		c32.2-29.3,64.6-58.4,92.4-92c1.2-1.4,2.6-2.6,3.8-3.9c42.9-43.9,85.7-87.9,129-131.5c7.8-7.9,17.4-14.1,26.2-21
		c16.6-12.9,26.6-30.5,32.9-49.9c7.6-23.3,21.5-41.1,42.7-52.8c22.6-12.5,38.7-31,54.4-51.1c16.9-21.7,36.2-41.5,55.4-61.3
		c29-30,59.5-58.6,86.3-90.6C1779.2,0,1797.4,0,1815.6,0z"/>
	<path class="st2" d="M467.6,2800c25.3-28.5,52.1-55.5,78.5-82.9c84.1-87.4,178.3-164.1,263.2-250.7c38.2-39,80.4-74.3,119.8-112.4
		c17.4-16.9,38.2-30,55.2-47.5c17.9-18.3,30.5-38.9,33.4-65.5c2.4-22.5,18.8-35.7,38-45.3c17.7-8.9,30.1-23.3,41.3-39.3
		c8.7-12.5,18.3-24.4,29.1-35.4c39.2-40,80.8-77.7,113.8-123.7c17.9-24.9,46.9-38.8,70.1-58.6c3.4-2.9,6.9-5.9,10.1-9
		c30-28.5,57.9-59,88.7-86.7c21.1-18.9,37.8-42.4,57.6-63c27.7-28.8,59.5-52.3,91.2-76c15.9-11.9,27.9-27,40.2-41.8
		c15.5-18.6,33.4-34.6,49.9-52c56.3-59.1,123.9-106.2,178.4-167.3c6.8-7.6,11.7-16.9,21.5-21.9c8.9-4.5,17.2-8.5,25.8-0.1
		c9.1,8.9,5.7,17.9-0.3,26.7c-12.9,18.9-30.8,33.3-47,49.1c-4.7,4.6-10.4,8.5-15.2,13.2c-29.3,28.8-58.8,56.9-91.7,82.1
		c-39.6,30.4-76.4,65.3-102.3,109.2c-17,28.8-45.3,43.3-71.6,61.2c-40.8,27.7-78.4,59-97.2,107.2c-5.6,14.4-16.9,24.2-30.8,30.4
		c-13.8,6.2-25.7,14.8-35.8,25.7c-28.2,30.7-59.1,58.3-94.6,80.3c-14.9,9.2-23.7,23.4-31,38c-10.1,20.1-22.8,36.7-40.4,51.1
		c-18.8,15.3-33.7,35.3-52.3,50.9c-21.6,18.1-38.8,39.8-56,61.7c-5.2,6.6-12.3,12-19.4,16.7c-15.1,10.1-25.7,23-31.7,40.4
		c-15.3,44.4-46.6,76.2-84,102.3c-18.3,12.7-34,28.1-50,43.1c-58.8,55.3-116.6,111.9-176.4,165.8c-76.7,69-149.5,141.6-222.8,213.8
		c-3.2,3.1-5.9,6.8-8.8,10.1C498.6,2800,483.1,2800,467.6,2800z"/>
	<path class="st2" d="M2800,1760.9c-25.5,20.5-49,44.3-77,60.6c-37.7,22-64.1,56.4-98.8,81.2c-7,5-11.2,12.9-16.9,19.2
		c-14.2,15.8-29.6,29.9-49.7,38.8c-35.9,15.9-32.9,34.3-29.9,65c1.1,11,6.8,21.2,7,32.5c0.4,19.8-7.7,32.3-26.8,35.9
		c-21,3.9-32.3,16.1-39.1,35.4c-7.5,21.3-17.3,29.4-43.5,30.7c-11.4,0.6-22.9,1-34.1-0.1c-27-2.5-48,8.7-68.7,24.6
		c-43.2,33.1-77.3,74.1-107.3,118.9c-5.2,7.8-9.7,16.1-13.4,24.7c-12.7,29.7-34.6,51.9-60.4,69.3c-49,33.2-95.2,69.2-135.9,112.3
		c-32.5,34.4-66.1,67.9-100.5,100.5c-39.4,37.5-77.2,76.9-124,106c-11.3,7-19.8,18.4-27.7,29.6c-14.7,20.8-35.2,35.9-52.7,54
		c-21.9,0-43.8,0-65.6,0c9.8-21.6,24.9-37.7,47.3-46.9c11.9-4.9,20.7-14.6,26.3-26.3c11.7-24.3,28.8-43.1,53.4-54.8
		c24.3-11.5,42.3-31.4,63.5-47.1c13.5-10.1,28.7-18,43-27c21.2-13.3,34.1-34.6,49.3-53.2c9.4-11.5,20.5-20.4,31.4-29.4
		c20-16.6,36.7-35.6,52.6-55.9c25-32,56.7-56,93.9-72.1c21.9-9.5,41.9-21.8,60.7-36.3c4.5-3.4,6.3-8.6,9.2-13.2
		c4.3-6.9,3-13.3-1.6-18.6c-4.8-5.6-12-4.5-17.5-1.6c-6.5,3.4-12.9,6.8-17.6,13.5c-6.1,8.7-13.7,16.7-24.4,20.8
		c-7.6,2.9-14.6,4.7-21.1-1.9c-7-7.1-4.5-14.3,0-21.6c10.1-16.4,27-24.5,42.6-33.6c14.6-8.5,30.2-15.5,46-21.8
		c22.4-8.9,35.3-27.3,47.9-45.9c21.1-31.3,50.8-52.9,80.5-74.6c15.9-11.6,30.4-24.7,37.1-43.5c13.6-38.4,45.6-58.7,76.6-79.8
		c13.5-9.2,30.5-3.2,38.9,11.8c3.8,6.8,7.8,13.2,15.6,16.1c6.6,2.4,13.1,3.9,18.9-1.6c5.7-5.4,9-11,7.2-19.8
		c-1.7-8.2-5.3-15.1-8.9-22.3c-9.4-18.8-7.8-32.4,6.8-47.6c23.2-24.1,46.8-47.7,74.5-66.9c5.7-3.9,9.2-10.9,14.1-16.2
		c19.7-21.6,45-37.6,61-63.1c5-8,15.6-12,25.2-14.2c37-8.4,64.4-32,91.4-56.5c13.7-12.5,27.5-24.8,41.2-37.1
		C2800,1728.1,2800,1744.5,2800,1760.9z M2441.8,2092.4c0.2-12.5-6.2-17.7-18.6-20c-16.5-3.1-42.7,20.7-46.6,35
		c-3.1,11.2,10.8,25.8,22.1,22.2c14.1-4.4,27.8-10.3,37.4-22.6C2439.5,2102.7,2442.2,2098.2,2441.8,2092.4z"/>
	<path class="st2" d="M0,2056.2c16.4-16.8,33-33.4,49-50.5c12.3-13.1,26.8-23.1,44-27.2c35.9-8.4,60.2-31.6,81-59.8
		c14.1-19.1,34.1-31.9,50.5-48.5c1.6-1.6,3.6-2.7,5.2-4.2c20.4-19.4,40.8-38.7,61-58.3c14.2-13.8,25.2-30.4,37.9-45.4
		c15.8-18.7,36.8-31.8,54.4-48.4c24.6-23.1,50.8-46,58.5-81.5c0.8-3.5,1.6-7.2,1.3-10.7c-1.6-17.9,5.5-33.2,17-45.3
		c24.6-25.8,49.6-51.1,71.4-79.6c18.5-24.1,45.7-39.1,69.3-57.7c13.2-10.5,22.4-23.5,29.7-37.4c9.2-17.6,21.4-30.1,39.2-38.8
		c16.7-8.2,29.2-21.4,38.9-37.9c21-35.9,50-65.3,79.8-93.9c19.4-18.6,37.9-38.1,57.1-56.9c26-25.4,51.9-50.8,78.5-75.5
		c10.4-9.7,22.7-18.7,37.6-17.5c14,1.1,25,14.4,25.6,26.9c0.5,8.9-12.1,24.9-23.5,28.9c-11.9,4.2-22.5,10.3-33.1,17
		c-13.6,8.6-20.5,22.3-30.2,33.9c-19.5,23.3-41,44.3-65.4,62.5c-29.3,21.8-50.4,50.5-69.5,81.4c-16.9,27.4-34.6,54.9-65.4,69.4
		c-11.6,5.5-22.8,11.8-30,22.4c-20.7,30.7-46.8,56.4-73.8,81c-22.8,20.7-43.9,42.1-58.6,69.5c-3.1,5.7-8.8,10.9-14.5,14.1
		c-24.2,13.5-36.6,34.8-41.4,61c-3.3,18-11.5,32.3-24.7,44.8c-12.2,11.4-23.8,23.4-34.6,36.4c-10.2,12.4-22,23.6-36.5,32
		c-21.3,12.4-34.2,32.7-45.6,53.8c-7.7,14.3-19.9,24.2-32.1,33.9c-13.8,10.8-27.4,21.3-38.2,35.6c-12.6,16.7-31,27.4-47.7,39.4
		c-15.2,10.9-25.2,25.4-33.4,41.3c-8.2,15.9-20.2,27-35.5,35.2c-28.3,15-57,29.5-84.9,45.3c-19.6,11.2-30.6,29.3-35.8,51.3
		c-4.2,17.9-11.6,34.6-32.7,34.7C0,2107.3,0,2081.8,0,2056.2z"/>
	<path class="st2" d="M2132.8,2800c-3.7-17.3-9.8-34.8,2.6-51.2c6.2-8.2,12.3-16.7,19.5-24c39.7-40.2,79.7-80.1,119.9-119.9
		c7.6-7.5,13.2-16.4,22.1-23.3c13.6-10.5,27.1-13.6,42.3-7.8c19.7,7.5,32.5-4.8,33.9-22.3c2.1-28.3,18.7-46.3,38.7-63.3
		c21.9-18.6,49.6-30.5,67.4-53.1c19.1-24.2,44.2-40.5,67.8-58.9c6.1-4.8,10.2-11.2,13.3-18.4c10.3-24.5,28.1-42.4,50.3-56.4
		c20.6-13,38.8-28.5,52.4-49.2c15.8-24,39.6-38.5,64.4-51.4c11.9-6.2,21.1-16.3,33.2-22.6c10.5-5.4,19.7-6.4,26,3.4
		c5.8,9,3.3,19-3.9,27.2c-7.3,8.2-16,14.5-25.7,19.4c-25.4,12.9-48.5,29-68.1,49.7c-9.6,10.1-12,23.1-5.6,31.5
		c6.1,8.1,17.2,8.3,30.6,1.4c8.4-4.3,14.7-11.1,19.7-18.4c5.3-7.6,11.9-13.6,18.4-19.8c7.9-7.7,24.8-8.9,31.1-2
		c8.3,9,4.2,19.3-0.6,28.2c-7.2,13.4-18.8,23.1-31.7,30.5c-29.9,17.3-52.5,41.6-71.7,69.7c-4.4,6.5-11.2,12-18.1,15.9
		c-24.4,13.7-40,36-56.4,57.3c-18.4,23.9-42.9,41.3-64.1,62.2c-19.5,19.1-44,32.8-60.1,55.8c-2.7,3.8-7.7,6-11.5,9.2
		c-8,6.9-17.8,10.2-25.4,2.3c-7.7-8.2-6.1-19.3,0-28.8c12.2-19,30-32.4,47.2-46.1c20-16,40.5-31.2,58.9-49.1
		c10.4-10.1,21.9-19,31.7-29.5c9.8-10.5,10.8-24,2.3-31.3c-9.3-8.1-19.7-5.8-29.2,1.1c-4.3,3.2-8.9,6.2-12.6,10
		c-7.2,7.5-13.7,15.6-20.7,23.2c-23.4,25.2-53.3,42.5-79.3,64.5c-28.1,23.7-46.7,51.9-38.5,91.1c0.5,2.6-0.1,5.5,0.2,8.2
		c1.3,12.3-1.5,24.2-13.4,28.3c-12.5,4.3-20.7-4.2-28.8-14.4c-18.1-22.8-33.5-24.4-58.3-2.7c-44.5,38.9-85.2,81.9-127,123.7
		c-4.7,4.7-7.8,9.7-7.7,16.6c0.1,7.3-0.4,14.5,7.9,18.3c8.1,3.7,15.3,1.4,21-4.3c9.9-9.9,19.3-20.3,28.8-30.6
		c25.7-27.7,52.9-54.1,80.1-80.4c5.3-5.1,12.7-8.6,19.8-10.9c9.1-3.1,16.9,1,22.3,8.8c5.8,8.4,2.5,16.1-3.2,23
		c-10.4,12.7-24.9,20.7-37.2,31.3c-28.3,24.3-53.8,51.3-79.3,78.4C2196.6,2800,2164.7,2800,2132.8,2800z M2617.2,2398
		c0.2,0,1.7,0.2,2.9-0.3c22.4-9.7,38.8-25.6,48-48.2c2.7-6.8,1.3-14.9-4.3-20.2c-5.4-5.1-12.3-7.1-19.9-3.7
		c-21.7,9.8-38.1,24.7-46.3,47.5C2592.8,2386.4,2602.1,2398.5,2617.2,2398z"/>
	<path class="st2" d="M1471.1,2800c26.6-32.2,56.7-60.7,87.2-89.1c26.4-24.6,53.1-49.2,77.1-76.4c18.6-21,39.8-39.2,64.2-53.3
		c12.3-7.1,21.4-17.5,25.5-30.3c9.1-28.7,28.2-48.2,52.4-64.1c18.4-12.1,33.5-28.1,43.1-47.5c16.9-33.9,44.2-57.4,73.5-79.3
		c11.8-8.8,23.9-17.2,35.8-25.8c11-7.9,22.5-9.1,35.5-4.8c23.1,7.6,41.3,7.5,47.4-27.1c4.9-27.7,23.2-44.3,48.4-54.4
		c38.5-15.5,65.2-45.3,91.5-75.6c14.6-16.8,31.5-31.2,48.2-45.9c13.5-11.9,27.8-23,40.7-35.5c31.9-31.2,63.3-63,94.8-94.6
		c11.5-11.5,24.5-20.8,39-28.4c18.3-9.7,31.2-25.4,44.8-40.5c16.3-18.2,32.5-36.7,52.6-50.9c11.3-8,24.6-6.9,31.5,1.4
		c6.1,7.4,4.2,21.3-6,30.1c-20.8,18.1-40.5,37-56.8,59.5c-9.7,13.4-24.2,21.4-39.1,28.1c-35.9,16-61.8,44.8-85.3,74
		c-22.6,28.2-46.2,54.4-75.2,75.6c-17.4,12.8-31.7,28.6-46.2,44.1c-32.2,34.5-67.6,64.9-108.6,88.3c-30.4,17.4-45.7,44-50.3,77.9
		c-1,7.4-2.5,15.3-6.1,21.7c-9.8,17.9-24.2,24.6-42.4,9.2c-23.2-19.7-32.7-21.7-58.1-4.3c-20.9,14.4-42.8,28.4-57.4,50.2
		c-4,5.9-8.5,11.8-10.9,18.3c-10.1,27.4-32.9,42.9-54.6,59.5c-20.3,15.6-31.6,35.6-33.1,61.5c-1.2,21.5-9.7,39.1-30.7,48.1
		c-49.5,21-85.7,56.1-112.3,102.4c-10,17.4-23.9,31.5-44.6,38.1c-20.8,6.6-34.7,22.8-47.4,39.9C1516.7,2800,1493.9,2800,1471.1,2800
		z"/>
	<path class="st2" d="M0,1484.8c17-12.8,24.8-32.3,35.6-49.6c16.1-25.9,34.5-49.1,65.4-58.2c22.3-6.6,36.9-21.9,49.8-40.5
		c19.8-28.4,48.5-48.4,72.8-72.7c7.3-7.3,17.8-9.6,28.7-8.8c7.2,0.5,14.6-0.1,21.9,0.2c11.2,0.4,20-4.1,23.5-14.4
		c3.9-11.4-2.1-21-12.1-26c-30.1-15.1-55.8-18.9-83.1,8.5c-21.4,21.5-42.1,43.8-65.3,63.6c-10.6,9.1-17.9,22.2-26.2,33.9
		c-9.9,14-18.9,18.3-30.7,13.5c-10-4-12.9-15.5-12.4-30.4c0.6-16.9,12.3-25.5,22.8-33.5c32.3-24.7,60-54.1,87.5-83.4
		c25.5-27.3,54-31.6,87.5-20.7c14.6,4.7,27.9,11,40,20.7c22,17.7,49.3,11.2,68.2-14.9c13.1-18.1,25-36.6,32-58.2
		c4.6-14.1,14-25.5,28.4-32.3c16.7-7.9,32-18.8,42.2-34.1c12.9-19.4,32.9-28.4,51.3-40c23.6-14.8,42-34.3,52.9-60.6
		c2.8-6.8,1.4-13.4,1.7-20c1.1-19.6,14.6-29.6,33.5-25.6c33.1,6.9,55.7-10.6,75.8-33.7c7.9-9.1,16.2-17.8,29.9-17.3
		c13.4,0.6,19.4,8.6,15.7,21.4c-5.4,18.7-21,28.1-35.1,39c-11.4,8.9-24.1,15.6-37.1,21.3c-19,8.4-33.7,20.3-43.8,39
		c-19.1,35.5-50.5,59-83.3,80.7c-9.4,6.2-18.4,12.8-26.2,21c-14,14.8-29.7,27.5-45.5,40.4c-19.8,16.1-32,38.5-45.2,59.9
		c-13.2,21.4-29.5,39.8-51.3,52.3c-18.7,10.7-33.3,25.8-46.7,41.9c-15.1,18.4-33.2,30.1-56.6,35c-44,9.1-72.9,39.1-96,74.6
		c-12.9,19.9-27.2,34.2-51,38.8c-23.6,4.6-38.4,19.9-45,42.8c-4.7,16.3-12.7,30.3-25.6,41.7c-16.6,14.6-32.7,29.8-49,44.8
		C0,1524.9,0,1504.8,0,1484.8z"/>
	<path class="st2" d="M2037.1,0c-10.8,15.3-16.6,33.4-27.7,48.8c-10.6,14.6-26.6,22.5-39,34.7c-5.4,5.3-10.5,10.6-15.4,16.3
		c-10.9,12.7-23,25.3-38.6,31.1c-32.3,12.2-46.7,39-59.1,67.6c-7.2,16.6-16.5,32-29.2,44.3c-27.6,26.8-52.3,55.7-73.9,87.6
		c-6.3,9.3-13.9,18-22.4,25.2c-29.1,24.9-45.9,60.4-74.5,85.6c-39.8,35.1-74.3,76.4-120.3,104.4c-4.9,3-8.8,7.9-12.6,12.4
		c-22.3,26.6-54.3,42.1-77.4,67.2c-23.4,25.5-47.3,49.6-75.4,70.1c-14.4,10.5-22.9,28.6-37.9,39.4c-30.9,22.2-52.8,54.7-86.6,74
		c-10.4,5.9-19.4,16.2-25.9,27.4c-10.3,17.8-26.6,29.1-44.2,38.3c-17.2,8.9-26.5,22.9-31.4,41.1c-2.6,9.4-6.8,18.3-10.6,27.3
		c-4.4,10.6-13.3,13.5-23.4,11c-9.8-2.4-11.3-11-12.4-20c-2.1-17.8,10.1-29.1,18.1-42.2c10.8-17.7,10-31-4.5-45.8
		c-6.3-6.4-12.1-12.7-13.8-22.4c-1.5-8.7,1-14.7,7.4-19.6c6.5-5,13.6-3.7,20.2,0c6.4,3.6,10.6,9.2,14.8,15.3
		c12.7,18.6,30.6,21.4,43.3,3.8c28.5-39.5,69.1-65.7,103.1-99c53.1-52,107.7-102.5,162-153.2c64.6-60.2,130.3-119.4,192.2-182.4
		c42.8-43.6,86.6-86.2,121.3-137.1c9.9-14.5,25.2-24.6,36.4-38.5c14.2-17.6,23.6-37.8,34.4-57.3c16.9-30.7,45.6-49.5,71.7-71.4
		c29.1-24.5,54.7-53.2,81.8-80.2c0.7-0.7,0.3-2.6,0.5-4C2004.3,0,2020.7,0,2037.1,0z"/>
	<path class="st2" d="M1233.2,2800c8.8-11.6,21.5-18.8,32.5-27.8c35.6-29.3,64.1-63.9,84.8-105.1c7.6-15,12.2-31,11-47.8
		c-1.7-25.3,9.5-42.5,30-56.1c14.5-9.5,27.6-20.9,38.7-35c18.6-23.6,46.2-37.1,68.1-56.9c23.7-21.5,51.2-38.1,74.3-59.8
		c10.3-9.7,19.2-21.8,30-31.2c64.8-56.5,122.9-120.6,193.9-170.1c12.5-8.7,22.7-20.7,34.1-30.9c53.2-47.5,96.1-104.6,145.1-156
		c9.8-10.3,7.9-22.9,5.4-34.5c-3.1-14-1.1-24.9,9.5-35.5c25.8-25.8,53.5-50,73.8-81.1c10.5-16.1,22.1-19,31.4-12.3
		c8.9,6.5,7.6,18.3-2.2,34.8c-14.3,24-29.6,47-50,66.5c-9,8.6-12.1,21.1-11.8,33.3c0.6,28.6-11.6,49.3-34.7,65.6
		c-23,16.2-42.2,36.4-53.2,63c-11,26.5-31.6,44.6-53.6,61.2c-9.6,7.2-16.7,16.1-24.2,25c-12.8,15.4-29,27.2-46,37.2
		c-32.5,19.2-60.1,44.6-86,71.1c-48.7,49.7-102.2,94-150.6,143.9c-27.5,28.4-58.3,53.2-92.8,73c-10.3,5.9-15.8,15.8-23,24.3
		c-12.8,15.2-26.2,29.7-42,41.9c-15.2,11.7-24.3,27.4-27.2,46.4c-5.3,34.4-24.7,61.7-44.9,88.4c-11.6,15.3-20.5,32.4-32.5,47.6
		c-5.1,6.4-11,11.4-16.8,16.8C1280.6,2800,1256.9,2800,1233.2,2800z"/>
	<path class="st2" d="M2800,371.9c-33.6,30.3-67.6,60.1-106.4,84.1c-17.4,10.8-26.9,28.1-19.8,51.2c4.2,13.6-4.8,27.2-19.1,31.3
		c-21.9,6.3-41.2,15.4-55.2,34.9c-11.9,16.6-31.7,25.5-45.2,40.5c-54.2,60.3-117.1,112.1-171.7,171.9c-24.8,27.1-51.9,51.8-78.4,77
		c-25.2,24-51.5,46.9-76.2,71.5c-18.2,18.2-35.8,36.7-50.3,58.2c-14.5,21.6-38.2,33.6-56.5,51.3c-30.7,29.6-63,58-84.5,95.6
		c-9.9,17.3-22.8,29.5-42.2,34.5c-17,4.4-29,15.3-38.3,29.7c-9.7,14.9-28.2,19.2-44,10.7c-9-4.8-9.3-18.2,0.6-27.3
		c8.8-8.1,19.1-14.7,28.6-22.1c18.7-14.5,40.7-26.4,55.5-44.2c51-61.2,110.2-114.2,164.4-172.2c31.7-33.9,64.7-66.4,97.5-99.1
		c29.2-29.1,61.9-54.8,89.3-85.4c26.2-29.3,51.2-59.6,79.8-86.7c12.4-11.7,26-22.2,38.7-33.6c13.5-12.1,27.2-24.7,36.6-40
		c11.8-19.3,27.7-33.1,47.2-42.7c20.6-10.1,33.5-26.5,41.7-46.8c5.2-12.9,12.2-24.4,23.2-32.3c24.7-17.9,36.8-45.9,55.8-68.2
		c8.1-9.6,18.2-16.6,28.6-21.1c29.9-12.9,48.4-38.2,69.9-60.3c11.1-11.4,20.4-24.6,30.6-37C2800,320.8,2800,346.4,2800,371.9z"/>
	<path class="st2" d="M2800,1025.4c-7.5,4.2-10.1,12.4-14.3,18.8c-11,16.7-28.6,25.7-42.6,38.9c-13.6,12.9-23,28.7-34.2,43.3
		c-14,18.2-33.4,29.2-52,41.4c-9.7,6.4-19.8,12-30.7,16c-27.6,10.1-46.7,30.2-65.9,51.7c-25.9,29.1-53.8,56.6-83.8,81.7
		c-28.2,23.6-55.8,48.6-76.6,78.5c-15.9,22.8-38.6,35.8-58.3,53.1c-14.3,12.6-28,25.3-39.9,40.2c-12.5,15.6-28.4,27.7-44.5,39.3
		c-16,11.5-28.5,26-39.2,42.2c-18.8,28.5-42.6,52.1-68.5,74.2c-44.9,38.3-85.8,80.9-128.3,121.8c-22.5,21.7-44.6,43.6-65.8,66.4
		c-7,7.6-15.6,13.9-25.7,6.8c-10.3-7.2-8.9-17.2-3-27.4c14.3-25,37-42.1,57.3-61.3c11.8-11.2,24.6-21.7,35-34
		c24.8-29.2,52.9-55,80-81.8c21.1-20.8,47.4-35.6,67.9-57.4c11.6-12.3,20.1-26.1,23.4-42.8c4.2-21.5,18.1-35,37.7-41.7
		c21.7-7.4,37.9-21.3,48.7-40.2c10.9-19,24.4-33.8,44.2-43.5c14-6.9,22.8-19.3,27.4-33.6c4.9-15.2,15.7-23.9,27.9-32.4
		c29.1-20.2,59-39.9,79.8-69.3c9.1-12.9,12.5-29.6,24.1-41.3c26.1-26.2,47.6-57.2,80.6-76c14.2-8.1,29.9-11.8,45.7-13.8
		c24.1-3,42.9-15.1,59-31.6c41.9-42.7,80.5-88.7,124.4-129.6c3.3-3.1,6.8-5.9,10.2-8.8C2800,990.8,2800,1008.1,2800,1025.4z"/>
	<path class="st2" d="M0,749.2c15.6-10.5,30.4-21.6,41.9-37.3c8.8-12,22.2-19.9,36.2-24.9c20.4-7.2,34.4-21.1,43.6-39.5
		c11.4-22.8,30-38.2,48.3-54.8c19.3-17.4,41.5-29.6,63.5-42.4c10.6-6.1,14.4-15.2,15.3-26.5c2.8-33.2,4.6-42.7,40.8-56.5
		c21-8,37.4-22.8,54.1-36.7c15.5-13,31.7-25,48.3-36.3c17-11.6,27.1-27,30.2-46.9c4.9-31.7,24.2-53.3,49.3-70.5
		c10.4-7.1,19.4-15.6,24.8-26.2c13.7-27,36-45.1,59.5-62.4c3.3-2.4,6-5.5,9.1-8.2c21.1-18.5,37.6-41.3,58.9-59.8
		c31.9-27.6,60.7-58.7,91.5-87.5c11.5-10.8,24.1-20.3,33.8-32.9c17.3,0,34.6,0,52,0c-22.6,24.7-45.6,48.9-72.5,69
		c-8.6,6.5-16.7,13.8-24.5,21.3c-37.5,36.4-74.9,72.8-112.2,109.4c-13.5,13.3-28.8,24.6-42.5,37.5c-23.5,22.2-27.5,35.3-15.8,67.4
		c8.9,24.5,2.6,46.5-18.3,61.3c-10.6,7.5-21.3,14.4-34,18.2c-17.2,5.2-32,14.9-42.7,29.2c-14,18.8-34.9,29-51.7,44.1
		c-20.8,18.9-44,33.4-68.6,46.6c-15.8,8.5-22.6,25.4-28,41.6c-5.9,17.6-18.1,29.3-32.2,40c-26.4,20-54.3,37.9-79.4,59.5
		c-13.2,11.3-21.3,25-25.7,41.5c-4.5,17-15.4,28.1-32.5,32.3c-27.6,6.7-47.7,25.1-69,42.3C33.3,776.3,18.4,794.7,0,809.4
		C0,789.3,0,769.3,0,749.2z M500.4,326.4c0.4-11.6-4.4-16.9-15.4-17.4c-13.2-0.5-26,11.1-25,24.5c0.7,9.5,5.9,16.7,17.2,16.6
		C488.5,349.9,500,338.4,500.4,326.4z"/>
	<path class="st2" d="M2444.5,0c-29.2,31.8-56.6,65.8-93.7,89c-11.2,7-18.9,17-25.7,27.2c-14.8,22.3-33.9,39.1-57.4,51.4
		c-13.2,6.9-24.6,16.5-35.2,26.8c-37.5,36.3-73.9,73.9-112.6,109.1c-30.8,28-59.8,56.9-81.9,92.7c-8.4,13.7-23.1,22.4-37.2,30.6
		c-15.9,9.2-27.1,24-38,38c-18.4,23.7-41.9,40.4-67,55.3c-19.8,11.7-39,23.9-54.7,41c-8.9,9.7-19.6,17.2-30.3,24.6
		c-13.5,9.4-25,21-33.9,34.4c-10.2,15.2-25.1,24.1-39.7,33.4c-11.1,7.1-19,16.5-24.5,27.9c-10.9,22.6-25.6,41.7-45.9,57
		c-13.4,10.1-19.5,26.4-27.9,40.7c-10.5,17.9-26.8,22.1-40.2,11.6c-13.5-10.6-13.8-29.4-0.9-44.1c12.9-14.7,30.5-23.8,44-38
		c12.3-13,22.4-27,27.2-44.1c6.3-22.7,22.7-37.3,39.3-51.9c1.3-1.2,3.3-1.6,4.5-2.8c20.7-23.6,47.7-40.6,68.5-63.7
		c18-20,37.6-34,63.6-41.9c19.6-5.9,36.2-19.5,51.1-33.9c22.2-21.5,43.9-43.7,65.8-65.6c11.5-11.5,24-21.7,36.8-31.7
		c14-10.9,23.6-26,34.4-39.8c15.7-20.2,34.2-37.4,53.9-53.2c17.1-13.7,31.5-30,47.2-45c44.3-42.3,89.5-83.2,139.5-118.9
		c21.2-15.2,38.4-36.2,56.5-55.4c20.5-21.7,47-36.8,65.2-60.9C2411.7,0,2428.1,0,2444.5,0z"/>
	<path class="st2" d="M2800,812.1c-14.6,9.9-23.5,25.4-37.2,36.8c-37.7,31.4-73.1,65.9-105.3,102.8c-24.7,28.3-57.6,45.8-82.9,72.9
		c-15.5,16.6-26.9,34.9-31.2,56.6c-5.2,26.2-19.6,41.8-45.8,45.2c-24.1,3.1-35.7,17.1-39.5,39.9c-2.4,14.2-11.1,25.4-21.4,34.9
		c-11.4,10.4-16.2,22.5-17.1,38c-1.2,20.1-10.1,31.2-29.8,29.9c-17.5-1.1-26.4,6.5-32.8,23.8c-4.5,12.3-12.4,22.3-24.8,26.3
		c-15.9,5.2-27.2,14.7-34.5,29.4c-9.8,19.6-27.3,33.2-39.7,50.8c-5.7,8-11.3,16.2-15.5,25c-6.6,14.1-18.4,21.3-31.4,27.9
		c-35.1,17.5-72.3,30.5-106.2,50.6c-7.1,4.2-15,6.7-22.7,0.8c-9.9-7.5-7.9-23,5-31.6c26.7-17.8,53.3-36,82.2-50.1
		c25-12.3,40.5-33.2,56.5-54.4c23.1-30.7,44.5-63,77.4-85.1c15.3-10.3,24.3-27.6,39.2-38.9c25.3-19.3,45.4-43.3,62.6-70
		c7.1-11,10.9-22.8,11.8-35c1.8-23.8,12.4-39.3,35.6-46c8.5-2.5,17-5.3,25.2-8.7c17.4-7.1,27.3-21.8,34.3-37.9
		c15.3-35,37.4-64.1,69.6-84.8c23-14.8,42.5-32.9,59.7-54.1c7.6-9.4,18.4-16,26.8-24.8c24.1-24.9,47.8-49.9,75.7-71.1
		c12.3-9.3,19.4-25.4,29.1-38.2c7.1-9.4,16-16.8,27.1-21.1C2800,772,2800,792.1,2800,812.1z"/>
	<path class="st2" d="M0,2441.8c17.7-14.5,36.9-27.5,52.6-43.8c19-19.9,37.9-39.5,59.6-56.6c13-10.3,22.6-24.9,34.6-36.2
		c78.8-74,156.4-149.1,233.6-224.7c29.6-29,63.6-53.9,95.7-80.6c1.4-1.2,2.6-2.6,3.9-3.8c37.7-36.8,74.8-74.3,113.3-110.3
		c49.4-46.1,91.4-99.4,141.7-144.5c15.2-13.6,30.3-27.3,44.3-42.1c8.9-9.5,15.8-20.5,27.4-27.5c8.7-5.2,16.7-9.2,25.4-1.1
		c8.5,7.8,4.4,16.3,0.7,24.7c-2.8,6.5-7.9,11.1-12.9,15.5c-46.3,40.4-87.7,85.9-131.2,129.2c-11.9,11.8-21.2,26.5-30.1,40.9
		c-9.1,14.8-23.8,23.3-35.8,34.6c-4.8,4.5-10.3,8.6-15.2,13.3c-39.1,38-77.3,76.9-117.4,114c-23.3,21.6-49.2,40.4-74.2,60
		c-15.1,11.9-28.6,25.4-40.7,40c-14.6,17.5-31.3,32.8-47.5,48.6c-5,4.9-11.2,9.1-16.1,14.2c-39.7,40.9-85.1,75.6-126,115.3
		c-27.1,26.4-51.4,55.8-79.5,81.1c-32.7,29.5-62.1,62.5-97.1,89.5c-2.8,2.1-6.2,3.5-9.3,5.3C0,2478.3,0,2460,0,2441.8z"/>
	<path class="st2" d="M0,2562.1c16.4-9.4,27.7-24.1,39.6-38.2c18.8-22.2,44.1-37.2,65-57.1c34.1-32.4,59.2-72.9,93.9-104.9
		c31.4-29.1,66.5-53.9,97.3-83.5c37.5-36.1,79-67.9,111.9-108.7c28.2-35,63.3-62.1,101-86.2c12.9-8.2,24.8-17.8,35.6-28.7
		c34-34.2,68-68.2,101-103.4c23.9-25.5,42.6-27.2,73.1-10.3c11.3,6.3,17.1,15.5,14,27.8c-3,11.9-12.3,18.1-24.7,16
		c-33-5.5-53.3,8.5-64.4,39.2c-4.6,12.6-14.5,22.1-24.9,29.8c-10.7,8-21.2,16.6-28.4,27c-12.8,18.5-31.1,26.7-50.9,32.2
		c-18.1,5-32.2,15.4-45.1,27.8c-24.6,23.7-50.1,46.8-72.2,72.7c-32.3,37.7-71.4,68-106.7,102.4c-23.7,23-52.1,41.1-76.9,63.1
		c-29.5,26.3-59.7,52.3-76.9,89.5c-2.9,6.4-2.9,13-4.8,19.4c-7,24.2-13.8,31.2-38.1,32.9c-20.7,1.4-33.1,13-38.8,31.5
		c-6.6,21.7-18.3,36.9-40.9,43.9c-11.6,3.6-19.9,12.8-25.5,24.2c-3.2,6.6-6.4,13.8-13.1,18C0,2613.2,0,2587.6,0,2562.1z"/>
	<path class="st2" d="M1933.2,0c-19.3,22.9-41,43.4-65.2,60.8c-34.6,24.9-58,59.1-80.5,94.2c-10.4,16.3-20.6,32.9-35,45.8
		c-24.2,21.6-40.4,49.3-59.5,74.7c-9.2,12.2-21.6,20.3-31.9,30.9c-31.4,32.2-61.5,65.8-94.3,96.4
		c-67.4,62.8-134.6,125.8-199.5,191.2c-12.3,12.4-26.2,23.7-38.3,36.5c-48.6,50.9-104.5,94-153.2,144.7c-8.3,8.6-22.2,9.7-29.3,3.4
		c-10.6-9.4-6-18.5-0.3-28.8c5.8-10.5,16.2-15.4,24.1-23.2c25.6-25,51.4-49.7,78.5-73.1c28.6-24.7,53.3-53.3,81.2-78.7
		c59.6-54.2,114-113.7,172.2-169.3c19.6-18.7,40.7-35.7,60.1-54.8c15.2-14.9,29.1-30.7,40.3-48.8c6.5-10.5,14.6-19.7,25.6-25.4
		c29.7-15.6,46.2-42.5,61.5-70.5c4.8-8.8,10.9-16.6,18.4-23.1c30.2-26.3,51.9-59.8,76.4-90.8c24.5-31.1,52.2-58.2,84.1-81.4
		c4-2.9,7.9-6,10.1-10.7C1896.7,0,1915,0,1933.2,0z"/>
	<path class="st2" d="M0,1093.8c24-7.4,49.4-9.8,70.4-26.8c21.7-17.6,33.2-34.7,25.9-63.4c-5.3-21,3.9-38.5,18.7-53.5
		c16.2-16.4,35.7-29.6,51-46.4c29.4-32.3,62-59.6,100.5-79.8c8.4-4.4,14.8-11.1,19.9-18.2c17.1-23.5,42.8-36.5,63.8-55.2
		c27.6-24.5,59.2-43,89.9-62.9c5-3.2,9.9-5.8,15.6-7.4c9.3-2.6,18.2-4.8,25.7,4c8.3,9.7,5.4,20.5-1.1,28.2
		c-14.9,17.8-19.3,37.8-18.3,60.2c0.7,16.8-6.6,31.1-18.2,43.2c-17.7,18.6-28.7,42.3-46.9,60.5c-10.7,10.6-25.6,14.9-36.2,25.2
		c-13.6,13.1-25.9,27.6-40.3,39.7c-15.7,13.2-29.7,28.8-48.5,38.1c-13.2,6.5-27.3,2.8-33.7-7.8c-6.5-10.9-2.1-27.7,9.5-35.9
		c15-10.6,33.2-15.4,47.5-27.4c4.2-3.5,9-6.7,11.9-11c13.2-19.6,34.1-30.3,50.8-45.6c15.6-14.3,30-30.3,43.5-46.7
		c9.1-11,19.8-20.8,26.6-33.7c5.2-10.1,7.9-19.9-3.1-27.6c-10.1-7-17.7-0.7-24.8,6.2c-33.2,32.3-66.3,64.8-99.8,96.9
		c-16.2,15.5-34.7,28.2-54.3,39.2c-10.2,5.8-20.2,12.2-27.6,21.2c-19.1,23.2-45.2,36.8-69.9,52.1c-7.4,4.6-10.1,11.2-13.4,17.8
		c-3,6.2,1.5,11.2,5.7,15.3c5.2,5.1,12,4.3,17.7,1.5c6.4-3.1,12.2-7.5,18-11.7c9-6.5,19-9.1,28.8-3.8c6.6,3.5,9.7,11.3,7.8,18.9
		c-2.8,11.3-10.9,19.1-21.6,22.2c-5.8,1.6-12,3-18.3,3.7c-16.7,2-30.3,10-39.3,25c-19.3,32.4-46.3,56.7-79.3,74.5
		c-3.9,2.1-8.2,3.6-12.5,4.6c-18,4.3-33,12.6-42,29.5C0,1135.7,0,1114.7,0,1093.8z"/>
	<path class="st2" d="M0,1610.5c21.8-18,44.8-34.6,62.2-57.6c6.9-9.2,17.6-14.6,28.5-19.3c12.5-5.3,23.6-12.3,28.3-26.7
		c3-9.1-1.3-16.9-3.1-24.7c-2.6-11.4,1.1-20.3,8.6-26.5c8.3-6.9,18.4-5.4,27.3,1.6c9.7,7.7,20.8,15.7,33.1,9.8
		c13.4-6.4,12.3-20.5,12.1-33.5c-0.3-37.7,19.7-62.9,56.8-72.1c26.4-6.5,48-21.8,67.9-39c33-28.5,64.2-59,100.2-84
		c12-8.4,19.5-22.2,27.2-34.7c20.1-32.4,49.5-56.1,75.5-83c26.3-27.3,62.1-42.5,86.9-71.3c5-5.8,9.9-11.6,14.8-17.5
		c4.2-5.1,9.7-7.9,15.7-10.2c7.8-2.9,16.5-4.6,23.1,0.8c6.7,5.6,5.8,14.8,4.3,22.9c-3.2,16.3-15.8,26.2-27.3,35.9
		c-18.5,15.5-38.6,29-57.3,44.3c-43.4,35.7-87.9,70.4-114.4,122.1c-8.5,16.6-24.7,26-39.3,36.1c-14.5,10-28.3,20.6-40.7,33.1
		c-25.5,25.7-56.6,45-80.8,72.2c-8.8,9.8-22.6,11.9-35.5,13.3c-28.6,3.1-37.8,18.6-35.6,45.1c2.9,36.1-14.8,55.6-45.8,58.6
		c-19.2,1.9-31.8,11.2-38.5,28.6c-5.8,15-15.3,25.8-30,32.6c-12.9,6-23,15.1-29.2,28.4c-8.3,17.6-21,29-41.6,31.9
		c-21.7,3.1-37.7,17.5-53.2,31.9C0,1643.4,0,1627,0,1610.5z"/>
	<path class="st2" d="M2225.8,0c-23,18.3-51.4,29.9-69.3,54.5c-13.2,18.2-28.6,35.4-48.4,44.3c-39.8,18-67.5,49.3-96.9,79.1
		c-15.6,15.8-32.1,29.9-53.1,38.1c-15.4,6-26.4,17-32.8,32c-9.3,21.6-23.3,38.9-42.3,52.9c-13.9,10.3-22.7,25-30.5,40.6
		c-12.7,25.4-37.8,39.5-56.7,59.4c-16.2,17-26.4,35.5-26.9,59.4c-0.2,9.1-3,18-8.5,26.3c-4.2,6.3-9,11.4-15.4,14.5
		c-30.8,14.8-48.9,42.2-68.9,68c-13.4,17.3-29,30.1-52.9,30.1c-17.9,0-33.4,9.1-48.4,17.9c-15.8,9.4-31.5,10.1-37,0.6
		c-6.3-11.1,2-27.8,17.8-36.5c22.6-12.4,47.9-19.5,68.4-36.5c7.8-6.5,12.8-14.9,20-21.6c16.2-15.1,30.3-32.5,48.4-45.8
		c23.4-17.1,34.3-43.4,48.3-67.4c9.1-15.7,20.4-29.8,33.9-41.7c23.2-20.6,38.7-47.2,56.9-71.6c9.9-13.2,22-24.1,33.7-35.4
		c16.5-16,29.1-34,35-56.2c5.2-19.7,18.2-30,37.9-32.6c17.2-2.3,30.5-9,39.5-25.6c11-20.1,30.6-32.8,47.2-48.1
		c19-17.4,41.9-25.6,65.8-33.7c22.3-7.6,50.2-28.8,44.9-65C2165.6,0,2195.7,0,2225.8,0z"/>
	<path class="st2" d="M1695.3,0c-22.4,25.1-43.3,51.2-69.9,72.6c-13.5,10.9-22.4,27.7-32.5,42.3c-14.4,20.8-36,34.1-52.7,52.5
		c-15.9,17.4-34.7,32-48.5,51.4c-4.1,5.8-9.1,11.4-11.7,17.9c-11.5,28.4-32.6,47.9-57.1,64.6c-17.4,11.8-31.1,27.6-43.7,44
		c-23,30.1-50.6,55.6-77.2,82.1c-19.5,19.5-37.6,40.1-54.1,62.1c-10.3,13.8-25.8,22.3-39.2,32.8c-22.9,17.9-45.9,35.8-68.8,53.7
		c-15.7,12.3-25.1,29.1-32.2,47.2c-2.8,7.2-6.3,12.9-12.9,17.7c-7.8,5.7-14.7,5.6-22.5,1.7c-8.4-4.1-9.6-12.7-8.2-19.6
		c3.9-21,12.2-40.8,20.8-60.3c3.8-8.5,11.1-14.2,19-18.3c16.2-8.4,30.1-19.5,42.5-32.6c5.6-6,11.8-11.4,19.4-14.3
		c35.6-13.3,58.2-40.7,77.1-71.6c14.3-23.4,34.1-41,55.1-58.1c16.8-13.7,32.9-29.1,44.6-47.4c15.5-24.2,37.7-41,59.5-58.1
		c18.5-14.5,32.7-31.7,44.4-51.7c7.9-13.6,17.3-25.7,30.4-35.2c14.3-10.5,23.2-26.2,31-41.8c7.2-14.4,17.7-25.4,31.6-32.1
		c16.8-8.1,27.2-20.6,29.5-38.3c3-22.7,16.3-34.9,36.6-41.2c12.6-3.9,22.2-11.3,29.5-22.1C1655.2,0,1675.3,0,1695.3,0z"/>
	<path class="st2" d="M2800,79.3c-9.2,7.9-18.6,7.3-28.1,0.5c-2.2-1.6-4.5-2.8-6.8-4.3c-14.7-9.8-22.2-9.6-31.9,0.9
		c-7.3,7.9-6.8,24.3,1.1,34.1c3.1,3.8,6.5,7.2,9.3,11.5c11.9,18.8,7.2,34.3-13.6,42c-7.5,2.8-15,5.4-22.5,8.2
		c-15.5,5.8-22.2,18.3-22,33.6c0.3,29.8-15.5,50.6-36,69.1c-20.2,18.3-43.8,30.3-70.2,37.1c-7.7,2-14.8,6.1-20.3,12.5
		c-16.9,19.8-36.7,37.2-49.5,60.3c-9,16.2-23.9,23.2-40.6,28c-9.4,2.7-18.6,5.8-26.6,12c-19.9,15.4-23.5,35.1-16,57.9
		c2.8,8.4,3.7,16.7-0.4,24.8c-3.3,6.6-7.3,12.3-16.1,12.2c-8.5-0.1-15.9-2.9-19.2-10.2c-6.4-14-17.1-24.1-27.5-34.8
		c-12.3-12.6-11.3-26.6,4.7-33.9c21.5-9.8,35.3-26.5,49.1-44.4c9.8-12.8,25.6-19.3,38.8-28.4c31.9-22.2,60.3-46.4,63.4-89.6
		c1.2-16.3,17.7-24.9,33.1-19.3c46.2,17,61.1-0.4,89.1-31.5c6.4-7,12.4-14.7,11.7-26.2c-0.5-8-3.5-13.5-9.3-16.9
		c-6.4-3.8-13.6-1.3-18.7,3.4c-4.9,4.5-9.4,9.9-12.6,15.7c-2.7,5-6.6,8.6-10.5,12.3c-6.1,5.7-13,8-20.7,2.8
		c-7.9-5.2-10.7-13.4-6.7-21.1c15.1-29.3,34.3-54.4,69.7-60.7c6.6-1.2,13.3-1.7,19.8-3.2c22.7-5.2,31.9-21.2,26-45
		c-1.8-7.3-3.9-14.5-4.8-22.2c-2.9-24.9,14.8-36,33.5-39.1c18.9-3.2,35.2-10.6,46-27.4c11.8,0,23.7,0,35.5,0
		C2800,26.4,2800,52.9,2800,79.3z"/>
	<path class="st2" d="M1170.3,0c-36.2,32-71.5,64.9-103.3,101.5c-14.5,16.7-32.6,29.4-49.9,43.1c-33.6,26.7-70.3,50.2-97,84.9
		c-18.7,24.3-47.9,36.5-69.3,57.6c-30.9,30.5-69.6,53.9-88.9,95.2c-6.8,14.5-11.2,29-7.8,46.2c5.4,26.9-0.9,38.4-26.1,49.4
		c-24.1,10.5-38.5,30.8-56.4,48.1c-26.9,26-54.2,53-90.1,66.8c-23,8.8-38.8,22.6-45.9,46.2c-1.1,3.7-3.3,7.4-5.7,10.5
		c-7.2,9-16.7,16.1-28.1,11.1c-11.9-5.3-11.8-18.2-9.3-28.7c3.9-16.3,10.3-32.1,15.5-48.1c5.4-16.5,18.3-23.3,34.1-23.1
		c27.4,0.2,49.2-10.9,68.1-29.6c27.4-27.2,53.5-55.7,83.4-80.3c21.3-17.5,28.7-40.9,30.5-66.3c2-28.5,12.5-50.9,35.4-68.8
		c26.9-21.1,48.8-48.3,76.9-68.1c24.8-17.5,46.8-37.6,66.6-60.7c18.8-21.9,42.9-38.4,66.3-54.9c23.9-16.8,46.9-33.6,66.6-55.8
		c23.1-26,47.8-50.7,71.4-76.4C1128.4,0,1149.3,0,1170.3,0z"/>
	<path class="st2" d="M2800,1987.9c-18.6,15.2-36.3,31.3-52.8,48.7c-15,15.7-31.2,29.6-50.5,40.1c-24.4,13.2-43.6,34.5-67.7,47.9
		c-46.1,25.5-84.6,60.4-119,98.7c-40.2,44.6-82.6,86.8-125.2,128.9c-42.2,41.7-85.8,82-129.9,121.6c-22.9,20.6-48.6,38.3-66.5,64.1
		c-0.5,0.7-1.3,1.2-2.1,1.8c-12.5,9.9-25.1,11.9-31.5,4.9c-6.8-7.4-5-22.1,5.9-33.3c13.9-14.2,28.5-27.9,43.5-40.9
		c32.5-28.3,62.5-59.2,94.3-88.2c26.2-23.9,49-50.8,74.3-75.3c15-14.4,30.7-27.9,46.8-41c25.7-20.9,40.6-50.1,59.5-76.2
		c16.1-22.2,37.9-38.5,57.8-56.9c23.5-21.6,52.5-33.2,79.7-48.5c30.1-16.9,55.4-41.2,80.9-64.3c34.9-31.7,65.9-67.6,102.4-97.7
		C2800,1944.1,2800,1966,2800,1987.9z"/>
	<path class="st2" d="M896.9,2800c-4.8-17.1,2.2-32.2,19.8-45.7c20.5-15.7,37.6-35,55-54.1c11.4-12.5,25.3-22.9,38.7-33.5
		c21.4-17.1,42.5-34.5,63.1-52.6c22.5-19.8,44-40.7,64.7-62.3c23.6-24.7,45.6-50.9,75-69.8c21.6-13.9,27.9-37.3,30.8-61.4
		c1.8-14.6,9.3-24.8,21.9-31.9c18.6-10.6,36.9-21.2,58.1-26.6c32.2-8.1,54.3-29.4,71-57.5c9.6-16.2,16.1-33.8,24.6-50.4
		c6.9-13.6,15.2-25.7,32.8-28.9c18.3-3.3,36.2-8.8,53.9-14.4c10.3-3.3,19.1-0.7,23.6,7.5c4.3,7.9,2.5,16.9-5.3,24.4
		c-7.1,6.8-15.7,10.3-23.8,15c-20.1,11.7-33.9,30.9-52.6,44.3c-27.2,19.6-40.7,51.1-64.9,73.4c-7,6.5-14.2,12.9-22.8,16.4
		c-38.9,15.8-68.8,41.3-88.5,78.6c-9,17-23.3,29.3-38.4,41.1c-16.5,13-32,27.1-46.5,42.7c-29.7,32.1-60.9,62.9-92.7,92.9
		c-18.9,17.8-39.6,33.8-60.3,49.6c-33.6,25.7-63.4,54.6-84.8,91.4c-2.5,4.4-7.2,6.9-8.7,11.8C926,2800,911.5,2800,896.9,2800z"/>
	<path class="st2" d="M2800,519.5c-27.1,21.1-47,48-62.7,78.2c-8.3,16-22.5,22.7-39.7,22.8c-31.8,0.2-53.1,16.2-67,43.6
		c-11.6,23-24.8,44.3-47.9,57.9c-7.8,4.6-16.1,7.4-24.3,11c-32,13.9-55.5,38-76.4,64.8c-16.9,21.7-34.8,41.5-58.5,56.7
		c-27.2,17.4-46.5,43.8-66.1,69c-6.5,8.4-14.5,14.6-23.1,19.7c-33.7,20.2-57.5,47.8-66.9,86.4c-3.4,13.9-11.7,22.5-24.8,25.2
		c-10.8,2.2-24-9.3-28.9-23.9c-5.2-15.4,3.7-27.5,13-37.3c33.7-35.8,67.3-71.6,106.4-102c14.6-11.4,26.7-26.1,39.9-39.3
		c40.7-40.7,80.3-82.6,122.5-121.7c32.7-30.3,69.9-55.7,99.5-89.5c14.3-16.2,28.1-32.8,45.7-46c7.8-5.8,16.2-10.7,25-12.2
		c32.9-5.4,49.8-25.5,54.9-56.7c3.1-18.6,14.2-30.1,29.4-39.5c14.5-8.9,28.9-17.8,38.3-33c2.7-4.4,7.8-7.3,11.9-10.9
		C2800,468.5,2800,494,2800,519.5z"/>
	<path class="st2" d="M1990.6,2800c7.1-7.6,13.9-15.6,21.4-22.7c44.6-42,81.6-91,125.1-134.1c14.8-14.7,24.5-34.6,39.5-49
		c20.2-19.5,39.5-40.2,60.9-58.3c30.1-25.6,61.2-49.9,90.6-76.6c76.3-69.4,148.8-142.5,222.6-214.4c20.2-19.7,42.2-37.6,61.1-58.9
		c12.6-14.2,29.4-16,39.3-6.5c8.3,7.9,4.5,25.1-8.4,38.2c-17.1,17.4-34.8,34-54.2,49.1c-20.3,15.8-38.9,33.7-54.8,54.2
		c-12.4,16.1-26.2,30.9-42.7,43.1c-14.1,10.5-26.1,23.1-37.5,36.8c-15,18.1-34.4,31.8-53.5,45.1c-24.9,17.3-43.5,40.2-61.8,63.5
		c-6.9,8.8-15.1,15.4-24.8,19.6c-35.7,15.6-62.6,41.7-86.5,71.4c-2,2.5-4.5,4.5-6.7,6.8c-31,31.9-62.6,63.3-92.8,96
		c-18.3,19.7-30.7,44.4-51.6,62.1c-12.7,10.8-26,21-36,34.6C2023.4,2800,2007,2800,1990.6,2800z"/>
	<path class="st2" d="M1763.7,2800c24.2-27,50.3-51.9,78.3-74.9c15.3-12.5,28.6-27.3,42.7-41.1c59.2-57.9,116.9-117.3,176.8-174.4
		c43.4-41.4,89.8-79.6,133.7-120.5c28.6-26.6,50.9-58.2,74-89.2c30.2-40.4,65.3-75.3,108.9-101.1c6.8-4,14.7-6.3,22.5-8.3
		c7.3-1.8,14.1,2,17.3,8c3.6,6.7,4.3,14.8-1.8,21.4c-6.5,6.9-13.9,12.5-22.2,17.3c-33.3,19.4-58,48.5-83.6,76.6
		c-34.4,37.8-68,76-106,110.6c-27.5,25-57.9,47.2-79.9,78.3c-13.6,19.2-33.4,33.1-52.3,46.8c-16.1,11.7-27.4,27.4-40.2,41.8
		c-15.9,18-32.8,34.7-50.7,50.7c-17.6,15.7-34.7,32.4-49.9,50.4c-6.3,7.5-13.6,13.2-20.7,18.8c-23.1,17.9-39.6,42.1-60.9,61.7
		c-10.2,9.4-22.9,15.7-31.4,27C1800.1,2800,1781.9,2800,1763.7,2800z"/>
	<path class="st2" d="M0,604.3c31.5-14.1,52-40.6,75.1-64.7c27.6-28.9,54.7-58.4,85.6-83.9c19.1-15.8,35-34.3,47.2-56.1
		c8.1-14.5,22.3-21.7,37.9-21.8c27.1-0.2,47.9-12.3,66.7-29.9c26.8-25,48.6-54.4,72-82.4c16-19.1,35.6-34.9,51.2-54.5
		c0.3-0.4,0.6-0.7,1-0.9c11.2-8.7,24.6-10.4,30.6-3.7c6.4,7.2,4.2,21.9-6.4,31.2c-26.5,23.3-52.1,47.1-69.9,78.1
		c-5.8,10-10.4,20.7-18.3,29.6c-28.6,32.2-61.1,58.5-102.2,73.5c-19.4,7-35.4,19.2-46.2,37.4c-11,18.6-24.5,34.7-42.4,47.3
		c-14.2,10-21.3,26.8-33.7,38.5c-22,20.9-45.9,39.6-61.6,66.7c-9.2,16-28,21.9-43.2,31.2C27,650,14.6,664,5.5,680.8
		c-1.4,2.5-2.8,4.6-5.5,5.5C0,659,0,631.6,0,604.3z"/>
	<path class="st2" d="M0,440.2c42-25.4,74.2-63.4,115.3-90c8-5.2,15.6-12.5,19.9-21.9c11.8-25.7,34.6-40.4,56.3-56.3
		c21-15.4,39-34.2,53.7-55.1c13.5-19.2,30.8-34.2,48.3-48.6c11.4-9.4,19.3-21.2,29.8-31c45-41.6,90.3-82.8,132.6-127.2
		c3.1-3.2,5.9-6.8,8.8-10.2c15.5,0,31,0,46.5,0c-38.4,39.9-76.5,80.2-118,116.9c-10.2,9-19.4,19.2-29.1,28.9
		c-44.8,44.8-89.4,89.7-134.4,134.3c-13.6,13.4-26,27.6-32.8,45.6c-15.9,41.7-48.3,68.4-83.6,92.1c-13.9,9.3-27.4,18.9-38.7,31.3
		c-15.6,17.1-34.1,30.6-52.3,44.6C13.9,500.1,7.4,509,0,516.8C0,491.3,0,465.8,0,440.2z"/>
	<path class="st2" d="M2337.9,0c-33.3,29.7-62.2,63.9-98.5,90.5c-19.5,14.3-37.6,30.6-56,46.3c-44.7,38-89,76.4-130.8,117.6
		c-43,42.4-86.5,84.5-127.5,129c-27,29.3-54.4,58.7-85.9,83.6c-8.3,6.6-19.6,10.7-27.9,1.6c-7.4-8.3-5.6-19.4,0.8-28.8
		c10.6-15.4,26-26.1,40.4-37c17-12.8,27.9-30.4,41.3-45.9c7.4-8.6,14.8-17.3,23.2-24.5c21.2-18.2,30.1-47.2,52.5-62.9
		c38.8-27.1,70.7-61.5,105.2-93.1c39.2-35.9,85.5-63.2,121.3-103.4c13.7-15.5,32.5-26.6,49.5-39c13.3-9.7,24.1-21.7,34.8-33.9
		C2299.6,0,2318.8,0,2337.9,0z"/>
	<path class="st2" d="M560.5,2800c34.9-36.3,70-72.4,107.2-106.5c22-20.1,43.1-41.3,66.3-60.1c36.7-29.8,68.5-64.8,102.9-97
		c32.3-30.3,65.3-59.9,98.2-89.5c26.8-24.1,52.4-50.6,85.3-67.3c8.6-4.4,14.8-11.4,19.8-19.6c15-24.9,41.4-41.5,51.5-70.2
		c2.8-7.9,4.9-16.4,11.2-22.6c9.4-9.2,23.3-10.6,32.8-3.4c10.3,7.7,12.9,22.6,6.1,35.3c-1,1.9-2.7,3.6-4.3,5.2
		c-24.1,23.6-40.4,55.2-69.4,73.2c-19.4,12.1-30.1,31.6-47,45.2c-18.5,14.8-37.4,29.2-56.1,43.7c-1.4,1.1-3.1,1.9-4.3,3.2
		c-36.3,38.7-80,69.6-116,108.4c-41.5,44.8-90.1,81-136.3,120.2c-31.9,27-59.7,58.8-89.4,88.4c-4.7,4.7-9.8,9-14.7,13.4
		C589.7,2800,575.1,2800,560.5,2800z"/>
	<path class="st2" d="M2283.2,2800c11.8-17,28.9-28.6,44-41.9c18.5-16.2,36-33.2,52.6-51.1c29.2-31.4,61.6-57.6,101.8-73.5
		c9.4-3.7,16.9-10.1,24.2-16.6c76.1-68.3,147.5-141.4,219.3-214.1c18.5-18.7,40.2-33.3,60.1-50.1c5.5-4.6,8-11.8,14.8-14.7
		c0,18.2,0,36.5,0,54.7c-3-0.5-5,1.1-7.2,3c-15.1,13.5-30.8,26.3-45.5,40.3c-32.5,31-63.4,63.7-96.6,94.1
		c-36.5,33.5-71,68.9-106.7,103.3c-8.1,7.8-16.8,15-25.7,21.7c-31.7,23.9-68.8,40-97.6,68.2c-26.4,25.9-53.4,51.2-80.2,76.8
		C2321.5,2800,2302.3,2800,2283.2,2800z"/>
	<path class="st2" d="M2800,1547.7c-11,6.4-16.9,17.5-22.9,27.6c-16.9,28.3-41.5,47-69.1,63.9c-29.4,18-55.9,40.7-78.1,67.2
		c-8.3,9.9-11.4,24-17.7,35.8c-5.8,10.9-15.5,18-26,24.6c-17.6,11-21.9,23.6-16.9,44.1c5.1,20.9-8.1,43.8-26.4,45.8
		c-16.2,1.8-29.4-8.2-32.2-27.3c-2.7-18.2-8.3-34.3-19.4-49.1c-6.4-8.6-9.6-19.4-2.1-28.8c7.2-9,18.5-12.2,29.4-9.2
		c26.8,7.4,41.4-2.2,54.2-26.7c9.1-17.4,14.3-37.7,31.3-49.5c23.5-16.4,43.8-36.1,64.3-55.8c11.1-10.7,28-10.7,42.1-15.8
		c10.1-3.6,19-8.5,25.3-17c5.2-7,6.2-15.3,0.7-22.6c-4.6-6.2-11-6-18.8-5.1c-10.7,1.3-17.2,9.3-26.5,12.5c-7.6,2.6-15.7,3.7-22.2,0
		c-6.1-3.5-6.8-11.5-5.6-18.4c1-5.9,4.6-11.2,9.1-14.4c18.9-13.1,39.5-25.8,62.9-16.8c30.7,11.7,47.9-4.3,64.5-25.2
		C2800,1507.6,2800,1527.6,2800,1547.7z"/>
	<path class="st2" d="M2398,2800c23.1-28,50.6-50.7,82.3-68.5c28.2-15.8,53.5-35.9,77.3-57.4c30.6-27.7,58.6-58.1,89.3-85.6
		c41.2-36.9,80.2-76,120-114.2c10.6-10.2,21-21,33.1-29.7c0,18.2,0,36.5,0,54.7c-44.3,41.5-86.3,85.4-132,125.6
		c-31.2,27.4-57.8,59.7-89.6,86.7c-30.5,25.8-61,51.2-98.4,67c-11.3,4.8-22.4,11.1-30,21.6C2432.7,2800,2415.4,2800,2398,2800z"/>
	<path class="st2" d="M752,2800c24.5-23.2,47.4-48.1,75-67.8c16.5-11.8,31.2-25.2,44.3-41c10.2-12.3,24.2-21.3,36.5-31.8
		c21.1-18.3,42-36.7,63.1-54.9c30.7-26.3,60.3-53.8,92-79c12-9.6,22.1-21.6,33.1-32.5c13.5-13.4,28.8-16.8,36.6-8.1
		c7.2,8,0.1,26.4-12.7,36.9c-16.7,13.7-33,28-48.8,42.7c-30.3,28.2-61.8,55-94.2,80.7c-9.9,7.8-19.1,16.5-28.2,25.2
		c-28.8,27.6-56.9,56-86.3,83c-13.1,12-28.2,21.9-43,31.9c-6.1,4.1-11.3,8.7-15.4,14.6C786.6,2800,769.3,2800,752,2800z"/>
	<path class="st2" d="M0,866.8c24.3-17.6,41.2-42.9,63.8-62.2c19.3-16.6,38.8-33.2,61.5-45c16.1-8.4,29.6-2,32.4,15.9
		c2.4,15.6,6.6,30.4,11.7,45.2c6,17.2-2.5,30.2-13.4,41.8c-11.8,12.6-24.4,24.6-36.6,36.8c-19.8,19.8-38.9,40.2-57,61.7
		c-14.5,17.2-32.6,31.4-48.9,47c-4.8,4.6-9,9.8-13.4,14.7c0-17.3,0-34.6,0-52c0.8-0.4,1.8-0.6,2.4-1.2
		c40.5-40.4,81.1-80.9,121.5-121.4c2.5-2.5,5-5.5,5.9-8.8c2.4-8.3,3.6-16.5-4.2-23.5c-7.4-6.7-14-3.1-21.1,0
		c-7.7,3.4-13.7,9.3-18.2,15.8C62.3,865.5,29.7,890.6,0,918.8C0,901.4,0,884.1,0,866.8z"/>
	<path class="st2" d="M2800,691.8c-14.9,14.5-31,25.7-52.2,30.9c-15.1,3.7-20,19.2-21.6,33.9c-2.6,23.2-13.4,33.6-36.4,33.6
		c-4.1,0-8.2,0-12.3,0c-19.5,0.2-26.9,9.9-23.1,29.3c1.2,6.1,1.8,13,0.2,19c-2.7,10.6-8.7,17.7-21.8,17.8
		c-13.3,0.1-19-7.2-21.1-17.8c-1.4-7.3-0.8-15.5,0.8-22.9c3.3-15.9,5.6-31.4,2.9-47.9c-1.7-10.4,1.6-21.7,12.2-27.6
		c8.8-4.9,17.5-1.1,25.4,3.3c10.2,5.7,19.7,12.1,32.1,4.7c11.6-6.9,14.9-18.6,6.2-29.1c-4.2-5.1-8.8-10.2-14.9-13.7
		c-11.3-6.5-12.6-17.6-9.6-28.4c2.9-10.4,19.1-15.9,30.4-13.1c7.3,1.9,12.6,6,18.4,10.4c23.5,17.7,44.7,8.9,48.6-20.6
		c3-23.4,13.5-40.3,35.8-49.2C2800,633.5,2800,662.6,2800,691.8z"/>
	<path class="st2" d="M2543,2800c28.4-25.8,62.3-45.2,88.9-72.4c21.3-21.8,44.1-42.6,63.1-66.8c9.6-12.2,22.4-21.7,35.1-31.2
		c15.2-11.4,31.4-21.9,42.8-38.3c7.1-10.1,17.9-17.7,27.1-26.4c0,26.4,0,52.9,0,79.3c-8.9,5.7-17.4,11.9-27.7,15.5
		c-22.3,7.8-37.3,22.6-44.5,46.2c-4.8,15.5-15.5,26.7-32.7,32.2c-15.4,4.9-27.4,15-32.4,32.4c-3.3,11.7-10,22.7-21.3,29.6
		C2608.6,2800,2575.8,2800,2543,2800z"/>
	<path class="st2" d="M601.6,0c-31.3,31.7-62.5,63.6-93.9,95.2c-18.8,18.9-37.4,37.9-53.9,59c-9.7,12.4-23.2,21.2-35.5,31
		c-12.2,9.7-23,21.2-33.9,32.5c-34.6,35.9-69.5,71.6-102.5,109c-4.7,5.3-10.6,8.2-16.7,11c-8.3,3.7-17.2,4.6-22.3-4
		c-4.1-7-3.6-14.7,2-22.5c9.1-12.7,22.1-21,32.7-31.9c37.5-38.5,74.8-77.3,114.1-113.9c54-50.2,104.6-103.8,157.4-155.2
		c3.2-3.1,5.9-6.8,8.8-10.1C572.4,0,587,0,601.6,0z"/>
	<path class="st2" d="M2800,1851.2c-22.6,27.5-47.1,53.2-74.4,76.1c-12.1,10.2-22.6,22.4-34,33.5c-29.2,28.5-58.7,56.7-87.8,85.3
		c-8.3,8.1-17,14.3-28.5,7.9c-10.4-5.8-13.6-20.9-8.9-33.5c3.8-10.2,10.4-18.6,19.3-23.8c30.1-17.3,54.2-41.3,78.5-65.5
		c30.8-30.8,62.1-61,93.7-91c13.3-12.6,28-23.7,42.1-35.5C2800,1820.2,2800,1835.7,2800,1851.2z"/>
	<path class="st2" d="M0,1216.8c19.8-16,43.4-26.5,62.4-43.7c28-25.3,60.3-45.5,86.1-73.3c10.4-11.2,15.3-26.1,25.9-37.4
		c7.1-7.5,15.3-9,23.2-6.1c8.9,3.3,11.4,12.5,10.1,21.6c-3.2,23.1-15.1,41.5-32.3,56.7c-20.7,18.3-43.1,34.3-62.8,54.2
		C79.4,1222.3,45,1255.7,0,1274.2C0,1255.1,0,1235.9,0,1216.8z"/>
	<path class="st2" d="M1881.2,2800c22.5-26.1,46.5-50.7,71.5-74.6c32.4-30.8,64.9-61.8,95.6-94.4c16.9-18,30.8-38.7,48.4-56.1
		c2.8-2.8,5.3-6,9.4-7.6c8.9-3.6,18.3-6.6,25.7,1.1c7.6,8,4.4,17.6-0.3,26.3c-5.2,9.8-14.4,15.7-22.5,22.7
		c-15.8,13.6-26.7,31.7-41.2,46.5c-28.2,28.9-55.6,58.6-84.5,86.8c-16.8,16.4-35.1,31.2-50.2,49.3
		C1915.9,2800,1898.6,2800,1881.2,2800z"/>
	<path class="st2" d="M207.8,0c-6.9,12.7-20.8,16.6-31.6,24.1c-14.9,10.5-23,24.7-28.5,40.9c-6.7,19.6-19.6,33.8-38.7,40
		c-21.1,6.9-37.4,19.6-45.2,39C50.8,176.3,23.1,193.8,0,216c0-21.9,0-43.8,0-65.6c15.8-11.3,27.2-26.3,34.2-44.1
		C42.5,85.5,57.3,75,79,70.6c21.5-4.3,35.8-19.4,33.2-43.3c-1-9.6,1.1-18.7,5.4-27.3C147.7,0,177.7,0,207.8,0z"/>
	<path class="st2" d="M2800,921.5c-19.2,18.7-38.5,37.3-57.5,56.1c-37.3,37-74.3,74.3-111.5,111.4c-7,7-15.2,12-24.5,15.9
		c-8.8,3.7-15.9,2.6-21.9-4c-5.9-6.4-3.8-14-1.6-21.5c4.5-15.3,18.2-22.2,29.1-30.9c17.9-14.3,35.6-29,52-44.9
		c42.4-41.3,83.9-83.5,125.8-125.3c3.2-3.2,6.8-5.9,10.1-8.8C2800,886.8,2800,904.2,2800,921.5z"/>
	<path class="st2" d="M1110.2,2800c15.3-19.8,37.2-32.1,55.9-48.1c13.5-11.5,26-23.9,38.1-36.7c21.7-22.8,49.1-40,65.4-67.9
		c7.9-13.5,13.6-28,25.4-39.2c7.3-6.9,15.6-6.9,22.4-3.5c7.9,4.1,11.3,12.9,8,22.3c-9.4,26.9-24.7,50.8-44,71.2
		c-31.6,33.4-65.7,64.4-101.2,93.8c-2.7,2.2-4.6,5.4-6.9,8.1C1152.1,2800,1131.1,2800,1110.2,2800z"/>
	<path class="st2" d="M2800,218.8c-18,19.3-32.8,41.1-49,61.8c-18.5,23.6-37.1,47-59.3,67.4c-4,3.7-8.5,5.4-12.9,6.5
		c-11.1,2.9-22,2-28.8-8.9c-6.4-10.2-0.1-18.7,5.2-26.8c3.7-5.7,9.6-9.6,15.4-12.9c20.2-11.5,33.5-29.2,43.7-49.5
		c7.1-14.1,16.2-26.8,27.4-38c15.6-15.6,28.9-33.2,42.7-50.4c4.5-5.6,9.2-11.2,15.7-14.8C2800,175,2800,196.9,2800,218.8z"/>
	<path class="st2" d="M2800,1277c-14.9,8.9-26.3,21.4-36.7,35.2c-15.6,20.5-38.4,32.2-58.9,46.6c-12.5,8.7-18.8,23.7-33.9,29.9
		c-14.7,6-30.6-1.3-31.6-16.8c-0.5-8.8,4.6-16,10.6-22.4c15.1-16.2,34.6-26.9,51.5-40.8c29.4-24.2,60.9-46.1,85-76.3
		c3.9-4.9,9.2-8.5,13.9-12.8C2800,1238.7,2800,1257.8,2800,1277z"/>
	<path class="st2" d="M697.3,0c-19.1,21.8-40.8,40.9-61.8,60.9c-37.2,35.5-73,72.4-109.3,108.8c-3.8,3.9-7.8,7.4-12.7,9.9
		c-8.7,4.4-17,6.6-23.9-3c-6.7-9.4-1.3-17.4,4.6-23.8c8.6-9.2,18.9-16.8,27.8-25.6c32.6-32.3,65.2-64.8,97.5-97.5
		c10.1-10.2,23.5-17,31.2-29.7C666.3,0,681.8,0,697.3,0z"/>
	<path class="st2" d="M1301.6,0c-7.4,9.1-18.5,11.9-28.4,16.5c-21.6,10-37.7,26.9-52,44.6c-9.9,12.2-21.2,22.4-33.4,31.1
		c-17.4,12.3-33.4,25.9-48,41.2c-6.7,7-14.7,11.1-23.6,14.7c-8.2,3.4-14,1.5-19.2-4.3c-5.6-6.3-3.7-13.2-0.7-20.1
		c6.3-14.3,19.7-21.9,30.5-31.7c26.6-24.1,56-45.2,81.3-70.9c7.2-7.3,14.9-14.1,22.4-21.1C1254.2,0,1277.9,0,1301.6,0z"/>
	<path class="st2" d="M1536.7,0c-11.9,12.4-23.2,25.5-35.9,37c-20.7,18.9-30.2,42.5-32.4,69.7c-0.8,9.9-3.4,19.3-8.4,27.8
		c-7.4,12.7-21,18.4-31.3,13.4c-13.2-6.4-17.7-18.5-13.2-33.9c4.5-15.3,14.2-29.1,15.4-45.2c2.2-28.8,18.4-49.5,37.4-68.9
		C1491.1,0,1513.9,0,1536.7,0z"/>
	<path class="st2" d="M0,292.6c15.3-17.4,26.1-38.4,42.6-54.9c17-17,32.3-18,51.1-3c7.8,6.2,14,14.1,18.5,23
		c7.9,15.4-2,32.1-19.2,32c-6.2,0-12.2,0.1-18.6-2c-10-3.3-23.1,5.5-29.5,18.8c-9.6,20.2-16.6,41.9-34.9,56.6
		C7,365.7,5,369.9,0,369.1C0,343.6,0,318.1,0,292.6z"/>
	<path class="st2" d="M2800,1662.5c-28.9,25.7-57.9,51.4-86.7,77.2c-11.6,10.4-22.6,21.3-37.6,27.3c-9.6,3.8-19.4,3.8-24.4-4
		c-5-7.9-2.7-18.2,4.5-26.1c14.3-15.8,31.9-27.7,48-41.4c19.2-16.2,38.7-31.9,57.9-48.1c13-11.1,25.6-22.7,38.3-34.1
		C2800,1629.7,2800,1646.1,2800,1662.5z"/>
	<path class="st2" d="M317.2,0c-27.1,26.7-46.9,60.4-79.8,81.8c-11.5,7.5-16.3,22.1-24.4,33.2c-5.6,7.6-10.6,16.9-22.9,16.4
		c-15.6-0.6-23.3-10.8-18.3-26c7.4-22.8,24.2-38.3,41.4-53.4c18-15.8,38.2-29.6,49.3-52C280.7,0,299,0,317.2,0z"/>
	<path class="st2" d="M2800,2135.5c-34.9-4.1-63.6,9.5-89.7,31c-3.4,2.8-7.3,5.3-11.3,7c-10.8,4.7-21.4,3.8-28.9-5.7
		c-5.5-7,0.8-25.6,9.5-32.3c17.1-13.2,36.7-21.8,56.5-29.9c25.3-10.4,47.5-24.3,63.9-46.6C2800,2084.5,2800,2110,2800,2135.5z"/>
	<path class="st2" d="M653.5,2800c27.7-28.1,55.4-56.3,83.1-84.4c0.9-1,2-1.8,3.1-2.6c12.3-7.8,26.9-8.3,32.1-1
		c5.5,7.8,0.5,21.4-10.5,31.3c-20.6,18.7-44.4,34.1-61.4,56.7C684.5,2800,669,2800,653.5,2800z"/>
	<path class="st2" d="M415.6,0c-3.3,3.7-6.4,7.5-9.8,11.1c-19,20-38.1,40-57.2,60c-2.5,2.6-4.8,5.9-7.9,7.4
		c-8.2,4.1-17.3,7.1-25.2,0.2c-7.4-6.6-4.3-14.9-0.6-22.3c5.6-11.2,15.1-18.7,24.5-26.5c10.4-8.6,21.2-17,26.9-29.8
		C382.8,0,399.2,0,415.6,0z"/>
	<path class="st2" d="M2800,1159.4c-10.8,14.2-27.5,18.7-37.7,10.2c-14.7-12.2-16.3-32.8-2.5-47.6c11.3-12.1,25.1-21.2,40.3-28.2
		C2800,1115.6,2800,1137.5,2800,1159.4z"/>
	<path class="st2" d="M0,1709c11.8-6.7,17-19.6,26.7-28.3c4-3.6,8.2-6.8,12.9-9.6c6.7-4,12.4-3.1,18.4,1.4
		c6.3,4.7,5.9,11.4,4.4,17.3c-1.3,5.4-4.3,11.2-8.2,15.1c-17.8,18.1-36.1,35.6-54.3,53.3C0,1741.8,0,1725.4,0,1709z"/>
	<path class="st2" d="M0,1323.4c17.6-14,30.3-15,37.3-1.3c6,11.8,8.5,24.5,4.3,38.6c-6.6,22.1-22.6,29.6-41.7,17.4
		C0,1359.9,0,1341.7,0,1323.4z"/>
	<path class="st2" d="M1050,0c-3.8,8-9.2,14.5-15.9,20.4c-9.2,8-18.5,8.8-29.5,3.8c-11.1-5-12.8-13.7-12-24.1
		C1011.7,0,1030.9,0,1050,0z"/>
	<path class="st2" d="M2089.1,0c4.8,6.7,11.9,12.3,6.6,22.5c-3.6,7.1-8.7,11.9-16,12.6c-5.3,0.5-10.7-3-13.4-7.8
		c-3.9-6.8-2.4-14,1.6-20.4c1.8-2.8,5-4.7,7.6-7C2079.9,0,2084.5,0,2089.1,0z"/>
	<path class="st2" d="M46.5,0c-7.1,7.9-17.7,9.4-26.4,14.3C7.5,21.3,3.2,31.6,4.8,46C5.9,56.2,9.3,67.6,0,76.6C0,51.3,0,26.1,0,0
		C15.5,0,31,0,46.5,0z"/>
	<path class="st2" d="M2767.2,2800c10.1-13.4,24.6-23.2,32.8-38.3c0,12.8,0,25.5,0,38.3C2789.1,2800,2778.1,2800,2767.2,2800z"/>
	<path class="st2" d="M2800,1375.4c-15-15-15-34.2,0-49.2C2800,1342.6,2800,1359,2800,1375.4z"/>
	<path class="st2" d="M937.9,0c-17.3,11.8-26.3,11.8-38.3,0C912.4,0,925.1,0,937.9,0z"/>
	<path class="st2" d="M1378.3,2775.9c-1.3-11.7,5-18.8,11.7-24.4c21.9-18.4,34.2-42.4,42.9-68.7c4.2-12.6,11.9-23.7,20.6-32.6
		c18.4-18.8,33.9-39.6,48.9-60.9c15.8-22.4,38.4-32.8,63.9-37.6c16.7-3.2,26.7-13,34.1-27.1c24.7-46.9,62.8-80.4,108.4-105.3
		c20.8-11.4,29.1-32.2,44-47.9c31-32.6,58.9-68.7,100.7-89.4c19.9-9.8,36.3-24.3,50.1-41.7c12.8-16.1,29.5-25.5,49.2-31
		c16.4-4.6,22.4-12.6,21.2-29.6c-3.1-45.6,19.3-75,58.6-93.3c22.5-10.5,34.4-25.8,35.1-51.7c0.6-20.8,9.1-39.1,27.6-52.3
		c11.3-8.1,17.9-21.2,18.2-36c0.5-21.2,7.7-40.3,19-57.8c9.2-14.2,13.5-28.4,8.5-45.6c-6.6-22.7-4.6-29.3,14.9-40.4
		c18.9-10.8,30.6-29.2,48.4-40.9c7.8-5.1,14.8-11.7,22.6-16.8c24.1-15.9,36.2-41.8,53.5-63.3c9.4-11.7,19-24.4,32.9-29.6
		c39.1-14.4,58.5-47,77.9-79.9c5.3-9,11.1-17.5,19.1-24.2c7.5-6.2,16-8.6,24.8-3.1c8.6,5.3,13.3,13.5,11.9,23.7
		c-1.7,11.6-5.7,22.9-14.6,30.8c-16.1,14.3-27,32.4-38.5,50c-9.2,14.1-21.3,24.6-36.6,30.6c-25.6,9.9-45.3,26.7-59.6,49.5
		c-16.4,26.2-35.3,48.9-63.5,63.6c-16.3,8.5-28.9,22.3-34.3,41.5c-7.7,27.6-24.4,50.4-42.2,72.3c-4.9,6-6.3,13.2-7.3,19.7
		c-0.7,4.8,0.2,11.9,7.7,15.5c8.1,4,13.9,1.5,19.7-3.1c11.1-8.8,18.9-20.7,28.1-31.2c19.3-21.8,34.7-46.5,51.8-70
		c5.7-7.8,14.1-14,22.1-19.7c21-14.9,35.5-35.5,50-56c12.2-17.3,26.8-32.8,46.4-39.9c35.9-13.1,55.4-42.2,76.7-70.4
		c10.4-13.7,17.5-29.6,30.7-41.6c14.9-13.6,34-15.3,51.5-20.8c21.5-6.7,34.6-20,40.4-40.7c6.4-22.8,18.7-41.2,35.8-57.3
		c15.1-14.2,29.5-28.8,38.8-48.1c5.2-10.7,15.4-18.7,28.9-15.5c13.3,3.2,19.8,14,22.1,26.3c2.6,13.6-5.7,22.3-17.3,27.4
		c-25.6,11.1-45.8,27.9-57.9,53.3c-4.4,9.2-5.2,19-4.1,29.3c3.6,33.5-5.9,50.3-42,56.9c-33.9,6.2-58.1,23-78.7,50.3
		c-17.9,23.8-35.7,48.6-60.1,66.9c-7.8,5.8-16.7,10.9-25.8,14.1c-26.2,8.9-46.2,25-60.2,48.4c-10.3,17.2-21.9,33.1-39.1,43.7
		c-19.5,12.1-29.8,32.2-42.7,49.6c-5.7,7.6-12.6,13-19.7,17.9c-22.1,15.4-34.8,40.2-57.2,55.3c-14.2,9.5-30,15.8-45,23.7
		c-32.3,17.1-46.5,46.2-50.6,80.4c-1.7,14.8,8.8,27.4,17.1,39.6c11.2,16.5,11.2,32-2.1,45.6c-14.9,15.2-29.1,31-46.1,44.3
		c-12.1,9.4-25.4,13-39.6,13.9c-23.1,1.5-36.6,11.7-42,34.1c-6,25-10.9,29.1-36.5,28.9c-14.5-0.1-28.3,3.4-38.1,13.6
		c-17.1,17.8-40.1,27.3-57.9,43.6c-31.6,28.7-66.1,55-83.8,96.1c-6.5,15-18.2,26.3-34.5,29.8c-26.6,5.7-41.8,24.5-58.8,43.6
		c-21.9,24.6-38.6,52.8-59.3,78.1c-11.1,13.6-24.9,19.2-42.8,18.3c-22.3-1.1-37.8,8.2-43.4,24.3c-2.3,6.7-4.2,13.9-4,20.9
		c0.4,18.8-10.8,29.2-25.9,35.5c-15.4,6.4-26.1,16.4-33.3,31.2c-13.3,27.4-26.2,55.1-49,76.5c-8.8,8.3-19.9,10.9-29.8,6.9
		C1383.1,2793.1,1374.7,2786,1378.3,2775.9z M2080.9,2133.1c-0.2-13.2-11.8-24.4-20.4-21.5c-21.6,7.3-38,20.7-46.5,42.7
		c-2.9,7.4,0.6,13.5,4.6,18.1c4.1,4.7,9.7,7.3,17.7,4.8c7.6-2.3,14.3-6,19.7-10.7C2067.3,2156.7,2079.9,2147,2080.9,2133.1z"/>
	<path class="st2" d="M439.1,1848.1c-12.1-3.6-28.1-7.5-41.9-17c-6.1-4.2-11.1-9.9-8.7-18.3c2.4-8.4,8.1-13.9,16.6-16.1
		c4.7-1.2,9.6-1.7,14.4-3c10.8-2.9,21.4-8.3,25.6-18.3c10.7-25.9,28.5-43.9,53.8-55.3c16-7.3,21.7-22.8,25.6-37.7
		c9-34.6,32.2-53.2,64.3-63.9c8-2.7,15.2-7.7,23.2-10.3c19.6-6.4,25.9-29.3,21.8-44.4c-5.9-22.3,0.2-39.8,16.2-54.8
		c11.8-11,19.6-25.6,33.9-34.7c8.1-5.1,16.3-9,25.2-11.2c15.8-4,28.5-11.2,35.9-27c7.9-16.7,20.2-28.8,38.9-34.5
		c20.4-6.2,31-20.2,31.2-43.1c0.2-29,32.5-68.9,61.2-78.7c6.3-2.1,12.9-3.6,19-6.2c16.3-6.7,27.6-18.1,31.4-35.8
		c5-23.4,19.5-39.9,38.8-52.6c17.6-11.6,35.1-22.9,51-37c14.7-13,34.3-16,52.5-21.7c13.5-4.3,26.9-8.6,37.7-19.3
		c10.6-10.5,15.3-23,16.9-37c3-26.7,17.1-40.4,41.2-41.2c35.5-1.1,59.6-20.2,75.3-46.6c26.1-44.1,66-73.1,102.7-105.7
		c25.8-23,51.2-45.7,75.1-71c31.1-33.1,60.6-69.3,101.7-91.9c15.5-8.5,23.5-24.7,35.4-37c14.1-14.6,29.5-27.4,47.9-35.4
		c8-3.5,19-5.2,25.8,4.9c7,10.4,2,18.7-5.5,26c-6.5,6.2-13,12.8-20.5,17.5c-16.7,10.4-30.2,23.9-42.1,39.5
		c-10.6,13.8-26.1,21.9-40.5,30.9c-15.3,9.6-27.3,22.5-39,35.6c-33.8,37.6-68.8,73.3-107.6,106.2c-36.8,31.1-75.3,61.5-102.5,103.4
		c-18.3,28.1-41.3,52.9-76.1,62.9c-19.3,5.5-28.9,21.8-35.3,39.3c-10.8,29.8-29.6,47.8-62.9,49.6c-21.9,1.2-41.8,10.3-57.5,25.7
		c-13.4,13.1-29.4,21.9-44.9,31.5c-20.3,12.6-34.5,28.7-32,54.7c0.3,3.6,0.1,7.3,0,10.9c0,20.7-11.6,32.6-32.5,32.5
		c-17.4-0.1-33.6,2-48.2,13.1c-15.6,11.7-23.3,32.6-21.3,52.4c1.3,13.2,5.5,27.8-4.4,40.5c-8.6,11.1-21.2,14-33.6,17.1
		c-25.7,6.4-44.5,19.4-50.6,47c-2.8,12.5,0.6,24.6,2.9,36c5.3,26.6-2.6,47.4-23.1,63.1c-18.1,13.8-37.7,24.6-61.7,26.8
		c-16.7,1.5-29.9,12.3-39,26.4c-13.9,21.6-31,37.4-57.6,41.9c-16.3,2.8-26.2,17.1-27.4,34.1c-1.8,25.8-11.2,39.6-35.4,45.6
		c-29.8,7.5-46.7,26.3-54.8,54.7c-3.3,11.6-6.3,23.3-16.9,31.1C454,1845.9,449.2,1848.9,439.1,1848.1z M672.7,1552.6
		c-0.2,11.6,12.3,22.1,23.6,18.8c22-6.5,37.1-21.2,44.3-42.7c4.8-14.4-8.1-29.2-22.3-27.5C703.8,1502.9,671.1,1535,672.7,1552.6z"/>
	<path class="st2" d="M870.6,2638.5c-6.1,1.3-11.8-0.9-13.6-6.4c-2.7-8.3-2.7-17.4,3.9-24.2c7.6-7.7,15.3-15.6,24.3-21.4
		c12.3-8,21.5-19.1,32.6-28.3c24.6-20.5,46.2-44.9,71.4-64.5c34.1-26.5,65.4-56.2,98.7-83.6c12.3-10.2,23.6-22,35-33.4
		c30.3-30.3,60.5-61,94.7-87.1c9.9-7.6,16-17.7,22-28c9.9-17.2,22.8-30.9,41.3-39c22.9-10,40.7-25.8,53.9-47
		c3.3-5.3,7.8-9.9,13.7-12.9c25.7-13.4,41.1-34.7,49.3-62.3c3-10.1,8.7-19.7,19.5-24.5c31.2-13.7,57-34.9,82.3-57.3
		c17.4-15.4,41.6-20.6,59.3-36.2c15.6-13.8,32.1-26.5,45.9-42.2c11.9-13.4,12.6-28.7,3-43.4c-2.2-3.4-4.5-6.7-6.6-10.1
		c-5-7.9-7.3-17,0.1-23.4c8.2-7.1,18.7-5.6,27.8-0.2c3.8,2.2,6.4,6.5,10,9.1c15.3,11.1,30.7,9.1,39.6-7.8
		c13.4-25.6,33.3-42.3,59.9-52.7c20.9-8.2,33.1-26.5,47.3-42.7c17.1-19.5,30.6-42.5,52.9-57.2c7.9-5.2,15.2-9.2,24.1-1
		c9.3,8.5,3.7,16.4-1.1,22.6c-7.9,10.4-18.5,18.8-26.4,29.2c-10,13.1-19.4,26.8-27.5,41.1c-10.2,18-24.7,31.2-42.9,39.2
		c-24.1,10.7-41.2,28.8-56.5,48.9c-5.3,7-11.6,12.5-18.8,16.5c-23.7,13.2-41.6,31.3-56.2,54.3c-14.3,22.5-34.5,40.5-57.1,55
		c-31.4,20.1-60.4,43.1-89,66.9c-9.1,7.6-20.6,12.2-31,18.3c-16.9,10-30.3,23.7-34.4,43c-9.5,45.6-43.4,65.9-81.7,82.8
		c-26.1,11.5-50.1,26.1-66.4,50.7c-6.7,10.2-8.5,22.4-13.5,33.2c-4.5,9.8-10.3,18.3-18.9,25.4c-27,22.3-59,36.8-87.4,56.9
		c-9.9,7-16.3,16.7-23.8,25.5c-23.3,27.5-56.1,43.6-81.3,69.1c-15.6,15.8-35.2,27.6-52,42.3c-30.5,26.8-60.3,54.4-90.3,81.9
		c-7.2,6.6-11.3,16.2-20.7,20.7C881,2637,876.3,2639.7,870.6,2638.5z"/>
	<path class="st2" d="M1449.2,1417.2c-2.2,17.4,1.9,37.6,8.4,57.3c4,12.3,3.4,23.4-7,31.5c-5.6,4.5-12.7,8.4-21,4.4
		c-13.1-6.4-20.4-16.4-21.5-31c-1.1-14.7,1.9-28.4,7.2-42.1c3-7.7,6.4-15.7,1.9-24.6c-5.9-11.7-16.4-14.1-26.1-5.3
		c-7.1,6.5-11.2,14.9-16,23c-10.5,17.5-23.7,31.8-44.3,38.4c-8.3,2.7-14.8,0.6-19.4-3.9c-5.6-5.4-6-13.3-1.9-21.2
		c5-9.5,13.4-15.2,20.7-22.4c25.7-25.3,50.5-51.4,82.6-69.3c10.6-5.9,15.3-18.5,21.3-29c7.1-12.5,17.4-18.9,31.7-19
		c9.1-0.1,18.2,0.1,27.3,0c20.5-0.2,30.4-16.2,21.8-35.3c-3.8-8.5-9.9-16.2-8.3-26.5c1.1-7,2.8-13.2,10.5-15.7
		c7.5-2.5,14.8-4,21.7,1.5c5.2,4.2,10.4,8.5,15.6,12.8c7.2,5.9,15.1,8,23.8,4c9.1-4.2,15-10.8,16.2-21.4c1.6-14-4.6-25.1-11.5-36.3
		c-8-13.1-15.8-26.4-5-42.1c5.5-7.9,12.5-11.6,21.8-10.4c8,1.1,12.4,6.1,14.1,14.1c0.9,4.3,3.6,8.1,4.9,12.3
		c3.4,10.5,10.4,15.4,21.3,14.4c11.3-1.1,18.1-7.6,19.8-18.6c3.4-22.1,6.6-44.1,22.3-61.8c8.3-9.4,16.7-18.9,24.2-29
		c9.3-12.5,18.4-25.3,26.2-38.8c8.4-14.6,21.8-19.6,36.8-21.1c35.4-3.7,50.2-18,54.1-51.7c2.7-22.7,13.3-36,34.3-40.2
		c19.2-3.9,30.1-16.3,39-31.7c12.3-21.4,28.5-39.1,48.4-53.7c9.5-7,20.3-6.8,31-5.7c7.7,0.8,12,13.9,8.3,23.9
		c-3.9,10.5-11.2,19.1-20,25.1c-18.8,12.8-30.5,31.6-44.3,48.6c-7.1,8.8-14.3,17.1-24,23.4c-18.2,11.7-32.1,27.6-41.3,47
		c-12.5,26.4-32.2,44.3-59.7,54c-30,10.6-47.9,35.2-66.4,58.7c-11.2,14.2-23.9,27.8-26.2,47.1c-0.4,3.1-1.2,6.2-1.3,9.3
		c-1.1,27.4-1.4,43.5-40.2,50.8c-27.2,5.1-32.8,14.1-28.1,40.6c4.5,25.4-12.6,41.3-37.7,35.2c-18.9-4.6-30.2-0.9-36.7,16.9
		c-10.5,28.4-32.6,36-59.3,39c-35.3,3.9-49.5,20.5-49.5,55.9C1449.2,1403.6,1449.2,1408.6,1449.2,1417.2z"/>
	<path class="st2" d="M1342.3,71.7c2-9.3-0.6-18.3-3.4-26.6c-4.6-13.8,0.9-23.5,11.7-29.2c10.4-5.5,22-4.1,30.9,5.3
		c5.6,5.9,10.8,13,10.1,21.3c-2.3,27.7-8.8,54.7-24.1,78.2c-11.2,17.2-30.4,26.5-46.6,38.4c-15.8,11.6-26.5,26.6-35.6,43.1
		c-9.4,17-21,30.5-39.3,38.8c-28.3,12.8-51.5,31.4-65.6,60.7c-7.3,15.2-20.7,26.5-33.6,37.9c-23.4,20.6-41.6,47.3-69.2,62.9
		c-21.8,12.3-43.2,25.1-63.1,40.4c-9,6.9-16.5,14.2-20.2,25.9c-2.7,8.5-0.6,14,4.2,19.5c5.1,5.8,12.1,8.2,19.6,6
		c8.6-2.5,16.3-7,22.7-13.5c7.6-7.8,15.4-15.5,23.2-23.2c12.6-12.4,27.8-13.9,39.1-3.9c9.9,8.7,11,27.8-0.9,38.9
		c-19.4,18-41.8,36.3-69,34.2c-40-3.1-64.5,14.9-84.2,46.1c-11.6,18.3-27,33.2-44,47.1c-22.3,18.2-35.2,43.5-46.4,69.7
		c-8.2,19.2-15.3,39-27.2,56.6c-6.9,10.2-15.8,17.5-27.9,19.1c-11.8,1.6-22.1-0.6-28.2-13.1c-7.6-15.6-8.9-30.5,1.3-45.2
		c2.6-3.7,5.7-7.9,9.6-9.5c31.9-13.5,45.5-43.4,63-69.5c15.1-22.5,33.8-40.8,53.3-59.4c28.4-27.1,53.7-57.4,54.9-100.9
		c0.8-29,21.4-46.9,42.9-63c20.4-15.2,41.9-28.8,63.1-42.7c28.2-18.5,52.6-42.1,71.6-69.5c24.7-35.8,54.4-64.8,92.3-85.8
		c12.5-6.9,22.6-17.3,29-29.6c12.1-23.3,30.7-39.7,52-53.5c10.6-6.9,19.7-15.4,27.1-25.3C1341.2,90.7,1344.4,81.7,1342.3,71.7z"/>
	<path class="st2" d="M960.7,38.1c11.5-0.2,20.9,2.6,27.5,13.2c6.9,11.1,2.8,18.8-5.8,26.2c-11.4,9.9-27.8,10.4-38.7,20.9
		c-23.9,23.3-56.4,36.4-77.3,62.4C820.5,217.9,753,251.3,707,308.2c-5,6.2-13.7,10.2-21.5,13.3c-27.4,11.2-51.2,27.9-72.1,48.4
		c-27.9,27.2-55.2,55-85.5,79.6c-19.4,15.7-29.7,36.3-35.3,60.2c-5.1,21.6-15.7,32.3-37.1,31.1c-36.8-1.9-62.3,15.6-81.1,43.7
		c-17.8,26.6-43.7,43.6-67.5,63.1c-14.8,12.2-26.9,27-41.3,39.4c-15.2,13.1-29.8,27.2-49.6,33.4c-15.7,4.9-29-0.6-29.8-13
		c-0.6-9.9,4.5-19.2,12.6-24.1c39.1-23.4,71-55.9,107.1-83.2c11.6-8.8,19.8-21.1,27.2-33.3c19-31.2,46.3-51.7,80.1-63.4
		c25.4-8.8,44.2-24.2,56.6-48c9.4-18,24.3-31.2,40.8-42.4c20.6-13.9,39.3-29.7,54.6-49.7c11.3-14.8,27.1-25,42.3-35.4
		c39.8-27.2,78.9-55.2,111.5-91.3c24-26.5,54-45.9,82.4-67.1c8.6-6.4,15.1-14.7,20.5-23c14.5-22.1,35.1-36.7,56.7-50.1
		c14.4-8.9,25.7-20.5,36.4-33.6C926.6,48.9,941.1,38.3,960.7,38.1z"/>
	<path class="st2" d="M492.6,773.8c-2.6-12.8,6.6-20.2,11.5-28.7c17.3-30.1,42.1-54.6,63.6-81.6c26.3-33.2,64.3-51.1,95.6-77.7
		c17.5-14.9,35.2-29,49.7-47.2c13.9-17.5,33.2-29.2,53.8-37c16.3-6.2,31-14.6,43.4-25.8c21.7-19.7,46.6-34.8,69.3-53
		c9.4-7.5,16.6-17.8,24.6-26.9c25.7-29.2,50.7-59.9,84.1-80.2c36.6-22.2,65.3-52.5,94.8-82.3c7.2-7.2,12.9-16,19-24.3
		c12.5-17,28.7-29.2,47.1-38.9c20-10.6,33.8-28.8,51.2-42.5c12.5-9.8,26.7-6.1,31.4,6.5c3.4,9.2-1,16.2-6.7,23
		c-11.4,13.7-26.1,23.5-41.1,32.5c-31.8,19.1-55.1,46.2-78.1,74.7c-23.6,29.2-49,57.4-83.8,75.2c-25.4,13-43.7,35.8-65.8,53.4
		c-19.6,15.7-31.9,34.7-36.1,60c-2.7,16.5-13.7,20.5-28.2,17.7c-4.4-0.9-8.6-2.3-13-3c-11.1-1.7-24.1,5.6-25.7,14.3
		c-1.8,9.4,5.5,18.2,18.3,21.1c7.6,1.7,15.2,3.8,19.4,10.5c4.1,6.6,5.9,14.3,0.1,21.3c-7,8.5-16,11.7-26.6,8.2
		c-5-1.7-10.2-4-14.3-7.2c-25.4-20.1-50.1-10.3-73.9,2.3c-15.5,8.2-26.7,22-38.9,34.7c-18,18.7-38.5,35.2-59.5,50.5
		c-50.2,36.6-95.4,78.3-131.9,128.7c-8.1,11.2-12.8,24.7-23.5,34.2c-6.1,5.4-13.2,9.6-20.8,5.9C494.7,788.5,489.3,782.2,492.6,773.8
		z"/>
	<path class="st2" d="M1405.3,1277.6c1,12.9-4.3,21.6-11.8,29.1c-27.4,27.4-54.3,55.2-82.3,81.9c-19.2,18.3-34.6,38.8-45.2,63.1
		c-11.7,26.8-30.3,48.7-51,68.8c-8.9,8.7-20.5,12.4-32,16c-16.7,5.2-28.7,16-33.9,32c-6.4,20.1-18.3,35.8-36,45.1
		c-25.3,13.2-40.4,34.7-57,56.6c-28.1,37.2-54.7,76.1-92.7,104.7c-1.8,1.4-3.2,3.2-4.9,4.8c-41.8,41.6-83,83.8-127.5,122.6
		c-11.4,10-20.3,23-31.4,33.7c-7.2,6.9-15.8,11.5-25.1,9.5c-15.4-3.3-20.6-20.8-8.9-32.5c27-26.9,53.7-54.1,81.5-80.2
		c34.7-32.6,69.3-65.6,100.4-101.9c15-17.5,31.1-34.2,47.6-50.4c14.8-14.5,25.7-31.7,32.2-50.7c6-17.4,17.4-27.8,32.5-35.4
		c11.3-5.7,21.9-11.6,31.2-20.6c9.8-9.6,17.3-20.5,18.1-33.5c1.9-29.8,20.7-40.6,46.3-44.7c19.3-3.1,34.4-13.4,46.1-27.9
		c27.8-34.4,50.3-72.8,79.7-106c12.5-14.2,25.7-28,41.1-39.5c11.9-8.9,20.9-21.1,28.1-34.2c4.5-8.2,8.7-16.6,14.4-24
		c7.3-9.4,18.1-12.2,27.9-8C1401.3,1259.8,1409,1267.4,1405.3,1277.6z"/>
	<path class="st2" d="M2133.5,1523.1c7.7-0.3,13.4,0.8,16.9,7.6c3.8,7.5,0.1,13-4,18.4c-9.8,13-24.5,19.7-38.2,26.9
		c-34.1,18-59.8,46.1-83.6,74.5c-28.8,34.5-60,66.4-91.5,98.2c-12.7,12.8-23.8,26.7-34,41.7c-8.7,12.8-14.6,26.2-12.1,41.5
		c5.3,33.6-12.8,51.6-39.9,65.6c-18.9,9.8-38.2,19-55.5,32.3c-11.4,8.8-19.6,20-28.3,30.6c-11,13.5-23.3,24.5-38.3,33
		c-13.6,7.7-25.1,18.6-33.8,31c-13.2,18.7-28.4,34.7-47.8,46.7c-33.5,20.7-62.8,46.6-90.2,74.5c-21.5,21.9-48.3,31.6-76.6,38.6
		c-8.7,2.2-17.2-3-20.6-11.3c-3.9-9.5-0.8-18.7,7.6-25.4c8.2-6.4,17.8-10.3,27.4-13.5c15.4-5.2,27.6-14.4,38.8-25.6
		c22.9-23,48.7-42.5,75.6-60.4c20.4-13.6,39.3-29,52.8-49.5c12.7-19.3,28.3-34.3,48.4-45.5c17.4-9.7,30.5-24.4,41.8-40.9
		c16.2-23.5,42.4-33.7,66.1-47.1c14.9-8.5,25-21,29.4-37.8c7.6-28.8,27.3-50.7,41.9-75.6c17.1-29,39.9-51.2,66.9-70.6
		c11.4-8.2,19.1-21.4,23.9-34.9c6.5-18,16.1-33.3,30.8-45.9c15.8-13.5,28.7-30.2,45.4-42.9c6-4.6,12.5-7.3,19.1-9.2
		c15.9-4.7,31.2-10.5,45.1-19.7C2122.2,1525,2127.8,1521.6,2133.5,1523.1z"/>
	<path class="st2" d="M1350.8,1773.4c0.5-9.2,8.3-20.6,22.2-27.5c15.6-7.8,30.6-16.5,45.2-26c19.4-12.5,29.4-32.2,41.4-50.5
		c5.9-8.9,12.7-16.4,22.5-20.5c26.9-11.2,46.2-31.2,65.6-52.4c26-28.4,53.7-55.4,82.3-81.4c28.3-25.8,58.6-49.8,80.6-82
		c11.1-16.3,28.7-25.7,45.8-34.9c13.9-7.5,27.2-15.9,37.9-27.5c13.9-15.2,31.5-23.3,50.9-28c26.3-6.4,38.2-25.9,31.7-52.7
		c-4.7-19.2-0.5-28.9,14.3-35.6c4.1-1.8,7.4-1.9,11.5-1.1c21.2,4,41.5,4.9,54.3-17.6c3-5.3,9.3-7,14.6-9.2
		c12.4-4.9,25.1-9,37.7-13.5c10.6-3.8,20.1-1.3,26.5,7.2c6.6,8.6,5.5,18.3-0.8,27.5c-9.1,13.5-23.3,18.7-37.5,23.7
		c-18.8,6.7-37.9,12.8-56.8,19.2c-18.8,6.3-25.6,18.2-21.5,37.9c6.3,30-7.5,46.6-38.7,46.9c-26.3,0.3-47.4,11.9-67.7,28.2
		c-47.3,37.9-89.2,81.7-134.1,122.2c-41.7,37.7-81.8,77.5-119,120.1c-6.8,7.7-14.5,15.4-23.3,20.4c-30.1,17.3-52.5,43.2-77.2,66.6
		c-21.7,20.5-44.3,39.9-63.3,63.1c-6.4,7.8-15.5,12.9-26.2,11C1357.8,1805,1350.8,1794.3,1350.8,1773.4z"/>
	<path class="st2" d="M1074.6,1263.5c0.7-12.6-6.2-23.1-9.1-34.8c-3-12.1,2.5-26.4,13.4-31.5c15.4-7.3,27-0.8,28.5,16.1
		c0.1,0.9-0.2,1.9,0.1,2.7c2.9,10.3,1.6,23.6,17,25.3c11.5,1.3,25.8-9,25.6-23.6c-0.4-31.7,19-48.9,41.6-64
		c8.7-5.8,13.8-14,20.2-21.3c42.2-47.9,89.7-91.2,124.4-145.5c8.1-12.6,24.6-16.6,35.6-10.9c9.7,5,12.1,12.8,9.7,23.3
		c-3.3,14-13.3,22.3-23.3,31.4c-26.4,24-51,49.7-68.5,81.3c-8.9,16-25.2,25.7-35.4,40.8c-3.5,5.2-6.7,10.6-9.6,16.1
		c-6.3,12.1-13.7,22.3-25.1,30.7c-11.4,8.4-20.6,19.2-25.3,34c-8.3,26.1-21.9,34.8-49.1,35c-20.6,0.1-35.6,11-45.4,26.9
		c-14.2,23.1-31.2,41.5-56.1,53.3c-10.7,5.1-17.8,16.2-23.9,27c-8.2,14.4-19.9,25.5-35.2,32.2c-16.9,7.4-29.1,19.1-35.9,36.3
		c-9.3,23.6-25.3,40.4-48.5,51.5c-18.5,8.9-32,24.6-46.5,38.7c-15.7,15.3-33.5,13.1-41.9-4.8c-6.3-13.4-0.8-24.4,7.6-34.5
		c12.6-14.9,31.9-19.5,47.6-29.6c15.7-10.1,32.1-19.1,43.7-34.4c9.5-12.6,8.6-25.4,0.1-37.9c-4.4-6.4-7.7-13.5-8.1-20.9
		c-0.6-14,18-24,30.4-16.8c3.5,2,7,4.2,9.8,7c21.3,20.8,35.8,8,41-12.7c4.4-17.4,13.6-27.9,30.3-31.8c19.8-4.6,37-13.2,50-29.4
		C1070.2,1281.4,1075.3,1273.7,1074.6,1263.5z"/>
	<path class="st2" d="M2409,1057.4c-0.2,15-12,21.7-27.6,15.6c-32.2-12.5-30.7-11.1-54.9,13.7c-37.1,37.9-72.7,77.5-114.7,110.4
		c-10,7.8-18.1,17.9-27.2,26.8c-34.2,33.3-67.9,67-102.7,99.7c-19.7,18.5-42.6,33.3-61.1,53.2c-32.5,34.8-62.8,71.4-87.2,112.5
		c-5.3,8.9-11.9,16.8-19.2,24.2c-22.2,22.7-43.7,46.1-66.2,68.5c-10.5,10.4-22.8,18.9-38.4,20.3c-6.9,0.6-13.4-0.1-17-7.7
		c-3.6-7.6-1.5-14.2,3.2-20.1c8.6-10.6,20.6-17.5,30.3-26.9c29.1-28.2,65.2-51.6,80.2-90.5c11.8-30.7,29.7-54.5,52.6-76.7
		c11-10.7,18.1-25.4,27.6-37.8c14.5-19,37.3-27.8,55-43.1c8.6-7.4,18.1-14.4,24.4-23.4c15.2-21.7,37.6-34.7,57.5-50.4
		c10.4-8.2,19.1-18,28.6-27c22-20.8,42-43.7,66.7-61.7c9.3-6.8,16-17.1,23.7-25.9c11.7-13.3,26.2-23.6,40.2-34
		c21.2-15.8,34.4-36,41.4-60.8c2.7-9.5,6.7-18.5,11.3-27.1c4.3-7.8,11.5-10.9,20.5-10.4c8,0.4,13.6,4,16.5,11.5
		c7.8,20.7,18.2,39.8,34,55.6C2409.9,1049.5,2408.6,1053.5,2409,1057.4z"/>
	<path class="st2" d="M415.7,967.2c-2,14.8,9.8,20.3,17.8,27.3c10.4,9,15.7,20.3,11.8,31.6c-3.6,10.3-16.3,16.7-29.6,15.8
		c-9.7-0.6-15.2-7.4-17.8-14.4c-6-16.1-14.8-30.5-23.9-44.7c-16.2-25.4-6-38.6,15.5-53.4c6.6-4.6,13.7-8.1,21.3-10.9
		c23.3-8.6,35.8-27.1,44.5-49.1c6.8-17.2,20.4-26.6,37.5-31.9c7-2.2,14.2-0.4,21.5-2c22-4.9,33.2-22.3,45.2-38.1
		c16.8-22.3,36.1-42.4,53.4-64.2c24-30.1,56.9-48.8,85.7-72.9c28.8-24.1,60.8-45.3,83.6-76.4c6.1-8.3,13.9-15.4,24.1-19.1
		c8.9-3.2,17.4-2.5,23.5,4.5c6.3,7.1,5.8,16.1,0.2,23.7c-16,21.6-36.2,39.3-55.7,57.6c-6.8,6.4-15.4,11-21.8,17.8
		c-17.2,18.1-36.4,33.1-58.5,45c-20.5,11-35.7,29.1-51.5,45.8c-20.6,21.6-40.3,43.9-60.6,65.8c-9.2,10-12.2,22.8-15.6,35.1
		c-6.7,24.9-17.4,31.7-41.4,24.4c-13.1-4-26-7-37.3,4.7c-11.7,12.1-9,30.1,6.2,37.2c3.2,1.5,6.7,2.5,10.2,3.2c11,2.1,22.4,5,23.4,18
		c1.1,13.4-8.3,22.4-19.2,28.6c-15.6,9-29.5,6-39.4-9.1c-4.1-6.2-9.3-11-14.3-16.2c-7.3-7.6-16.6-9.3-25.4-4.3
		C421.3,950.9,413.4,956.6,415.7,967.2z"/>
	<path class="st2" d="M1894.5,1636.7c8.1-15.5-2.5-36.3,8.7-54.1c3.1-5,6-9.9,10.4-14c40.2-37.7,76.2-78.7,105.6-125.9
		c18.6-29.9,48.1-50.8,75.5-72.9c33.2-26.7,62.7-57.3,91.2-89.1c21.2-23.7,44.6-45.2,68.6-66c28.4-24.6,55.1-50.8,78.4-80.4
		c7.8-9.9,15.3-21.8,31-21.3c12.2,0.4,18,7.7,16.2,19.9c-1.8,12.2-8.2,21.5-16.6,29.9c-27.7,27.7-53.4,57.8-83.6,82.5
		c-44,36.1-76.7,82.5-117.2,121.6c-23.5,22.7-50.8,39.9-75.9,60.1c-22,17.8-40.5,37.4-49.6,64.6c-4.8,14.3-12.9,26.6-23.5,37.1
		c-18.7,18.5-37.8,36.6-57.1,54.4c-12.5,11.5-16.5,25.8-18,42c-1.1,11.8-1.5,24.3-10.8,33.5c-5.1,5-9.8,11-18.3,8.5
		c-8.3-2.4-11.9-9.1-13.7-16.8C1894.8,1646.7,1895,1643,1894.5,1636.7z"/>
	<path class="st2" d="M1754.1,1186.7c-14.2,0-21.4-9.9-17.2-22.7c1.8-5.4,4.7-10.9,8.6-15c28.2-30.2,55.9-60.7,92.3-82.2
		c22.4-13.2,37.9-34.5,53-55.3c10.2-14.1,23.5-25.1,35.1-37.7c37.8-41.3,73.9-84.3,113.8-123.5c23.5-23.1,45.6-47,66.2-72.6
		c15.6-19.5,11.5-28.6-2.1-47.6c-11.6-16.3-12.9-30.7-1.4-39.3c11.3-8.5,23.4-5.8,35.3,10.5c9.7,13.3,16.3,28.7,22.3,44.1
		c7.2,18.6-1.5,33.2-13.5,45.9c-44.1,46.7-87.2,94.5-131.6,141c-37.6,39.5-74,80.4-110.4,121.1c-23.6,26.4-52.5,46.4-77.4,71.1
		c-17.7,17.7-35.5,35.4-53.1,53.2C1768.2,1183.8,1761.7,1188.1,1754.1,1186.7z"/>
	<path class="st2" d="M194.1,2493.9c0.1-10.9,5.3-19.8,12.4-27.3c33.5-35.6,69.3-68.5,109.5-96.5c7.7-5.4,14.8-11.8,21.6-18.4
		c39.8-38.6,80.5-76.5,118.7-116.6c24.8-26,50-51.5,75.2-76.9c8.2-8.3,18-16.7,30.6-8c6.6,4.6,10.3,10.2,7.4,20.5
		c-5.2,18.2-19.6,27.6-32.2,38.4c-14.5,12.4-27.2,26.2-40.1,40c-24.9,26.6-50.5,52.7-77.4,77.2c-15.4,14-30,28.5-43.6,44.2
		c-19.6,22.8-44.9,38.8-68.5,56.7c-14.7,11.1-24.3,26.4-36.9,39.1c-16.3,16.6-29.2,37.1-53.2,44.3
		C204.8,2514.4,194.2,2506.9,194.1,2493.9z"/>
	<path class="st2" d="M21.2,2261.3c-13.5,0-21.1-9.1-15.8-20.7c12.2-27.1,20.3-56.6,42.8-77.9c7.1-6.7,16.1-11.5,22.6-18.6
		c11.4-12.5,8.2-28.6,8.6-43.7c0.4-15.1,12-25.4,25.7-21.9c5.3,1.3,9.9,5.6,14.7,8.7c19.4,12.6,30.9,9.3,36.3-13.5
		c5.9-24.9,19.2-39.2,44.3-45.6c19.9-5,28.9-20.3,29.2-41.7c0.1-4.7,1.7-8.7,2.7-13c2.5-10.2,8.4-16.9,18.9-18.2
		c11.7-1.5,19.5,4.4,25.2,14.3c12.4,21.5,7.7,37.4-8.6,55.3c-12.1,13.3-25.8,25-40.5,35.7c-14.1,10.3-25.8,23.2-36.4,37.3
		c-9.6,12.9-20.4,26.2-36.4,31.5c-27.2,9-43.6,29.9-60.8,50.6c-18.5,22.4-38.1,43.8-51.5,70.1C38.3,2257.6,30.4,2262.4,21.2,2261.3z
		"/>
	<path class="st2" d="M880.6,23.9c0.1,21.6-13.7,33.2-27.5,41.1c-26,14.8-46.2,34.3-64.8,57.4c-13,16.1-31.3,28.2-48.3,40.6
		c-11.4,8.3-20.7,18.6-31.5,27.5c-20.2,16.7-38.4,35.9-57.5,54c-17.4,16.5-34.8,33.2-52.3,49.6c-9.5,8.9-21.2,9.5-28.7,0.9
		c-7.6-8.8-6.2-19.7,0.9-27.1c20.9-21.4,42.1-42.8,65-61.8c16-13.3,30.6-28.2,45.6-42.3c39.5-37.2,81.2-71.9,120.7-109
		c14.4-13.5,25-30.8,42.1-41.7c11.1-7.1,24.9-6.7,32.3,0.6C880.3,17.3,880.8,21.4,880.6,23.9z"/>
	<path class="st2" d="M2395.1,946.6c0.3-12,5.4-19.2,10.7-26.6c12-16.7,26.9-30.6,43.8-41.9c13.7-9.2,29.3-8.1,43.2,0.5
		c22.2,13.7,42.8,13,62.9-4c3.3-2.8,7.7-4.4,11.7-6.5c14.1-7.1,25.5-5.2,32.3,5.2c6.7,10.4,3,22.4-9.2,32.4
		c-6.9,5.6-14.7,8.5-23,10.1c-21.2,4-37.2,14.4-44.8,35.4c-6,16.4-18.9,27.3-30.8,39c-8.8,8.7-15,18.3-17.6,30.8
		c-2,9.6-6.3,19.4-16.5,23.1c-11.6,4.2-25.1-5.3-26.6-19.9c-2.3-22.5-12.3-40.6-26.8-57.1C2398.8,960.9,2394.5,953.4,2395.1,946.6z
		 M2457.6,965.2c13.2,0.3,32.5-18.5,33.1-32.3c0.4-9.5-11.9-22.3-21.5-22.4c-13-0.1-32.7,19.7-32.6,32.9
		C2436.7,954.8,2446.5,965,2457.6,965.2z"/>
	<path class="st2" d="M992.8,1609.2c-0.5,20.1-12.2,30.3-23.6,39.4c-29.3,23.3-52.5,51.8-74.6,81.5c-3,4-6.1,7.8-9.5,11.2
		c-37.6,37.7-75.5,75.2-112.8,113.1c-11.6,11.8-21.9,25-32.5,37.8c-5.3,6.4-12.8,8.9-19.9,10.3c-11.2,2.2-20.7-11.7-16.2-23
		c2.7-7,7-13.2,12.7-18.8c41.7-41.3,83-83.1,124.7-124.4c12.6-12.5,24.6-25.6,30.4-42.3c8.9-25.9,30.6-39.5,50.4-54.3
		c13.4-10,20.5-25.2,33.9-34.6c7.8-5.5,14.1-13,26-8.6C990.3,1599.5,993.3,1604,992.8,1609.2z"/>
	<path class="st2" d="M1552.1,790.2c15.2-2.5,24.5,15.1,20.3,27.8c-2.5,7.8-5.8,14.9-11.8,20.7c-40.7,39.6-81.1,79.5-121.9,119
		c-15.9,15.4-32.7,17.1-42.3,5.1c-9.1-11.3-3.2-29.8,13.5-41.2c45-30.8,83.4-68.1,113.9-113.6C1530.1,798.8,1538,788.9,1552.1,790.2
		z"/>
	<path class="st2" d="M2143.9,2075.8c-2.2-19.3,9.3-31.9,22.3-39.8c38.6-23.4,70.7-54,101.7-86c3-3.1,7-5.5,10.8-7.8
		c11.2-6.8,21.1-3.8,28.5,5.8c6.9,9,4.5,18.8-2.1,27.2c-7.8,10-19.7,15.4-29.1,23.8c-24.4,22-49.3,43.4-73.4,65.7
		c-6.8,6.3-12,14.5-16.8,22.4c-6.4,10.4-14.1,18.6-27.1,14.7C2146.2,2098,2142.1,2087.7,2143.9,2075.8z"/>
	<path class="st2" d="M2619.7,1415.2c-1.4,12.7-8.4,22.3-17.1,29.8c-29.7,25.8-58.3,52.3-76.2,88.3c-3.6,7.3-8.6,14.1-16.3,18.9
		c-13.9,8.5-27.4,8.5-36.7-1.7c-8.8-9.7-8.4-26.7,1.9-37.7c11.8-12.6,24.3-24.6,36.6-36.8c20.3-20,39.2-41.2,57.9-62.7
		c8.1-9.3,18.5-18.9,33.7-16.2C2614.1,1399.1,2619.2,1405.2,2619.7,1415.2z"/>
	<path class="st2" d="M2175.9,1055c16.2,0.7,24.3,5.4,28.8,18.3c4.8,14-1.2,23.5-11.3,29.3c-24,13.7-46.6,28.4-62.3,51.9
		c-10,14.9-19.9,30-33.9,41.5c-6.8,5.6-14,12.9-25,8.3c-15.9-6.7-20.2-22.4-9.7-38.3c3.4-5.2,7.3-10.3,11.6-14.7
		c27.9-29.1,56.1-57.9,84.1-87C2164.2,1058,2170.9,1054.3,2175.9,1055z"/>
	<path class="st2" d="M304.8,735.6c-5.5,1-11.5-0.4-13.9-6.7c-2.9-7.5-1.4-15.1,4-21.5c8.8-10.3,19.9-18.2,30.5-26.5
		c23.1-18.3,47.1-35.6,69.3-54.9c11.7-10.2,20.2-24,30.9-35.4c6-6.5,13.1-11.7,23.3-11.1c14,0.9,20,9.3,16.8,23.2
		c-5.2,22.4-20.4,36.7-38.5,47.7c-32.7,19.9-62.8,42.8-90.2,69.3C328.3,728.1,319.4,736.7,304.8,735.6z"/>
	<path class="st2" d="M1692.6,1766.8c-1.2-11.1,4.6-19.1,12.4-24.3c18.4-12.5,34.7-27.1,50.4-42.8c23.9-24,49.1-46.6,75.7-67.6
		c12.9-10.2,25.4-7.8,33.1,4c6,9.2,2,24.3-9.2,31.4c-8.6,5.5-18,9.9-27.1,14.6c-11.7,6-22.2,13.5-31.4,22.8
		c-21.4,21.6-43.3,42.7-63.2,65.8c-6,7-13.9,11.6-23.3,11.9C1699.1,1783,1690.8,1779.8,1692.6,1766.8z"/>
	<path class="st2" d="M688.6,1014.3c-7.5,0.7-15.1,0.9-18.3-7.8c-3.9-10.6,1.6-29.6,10.2-35.7c12.8-9,27.3-15,39.9-24.3
		c16.9-12.5,29.9-29,45.4-42.9c11.5-10.3,23.5-19.4,40.5-17.8c8.3,0.7,14.8,2.8,18.2,11.1c3.3,8.2,0.5,14.8-4.6,21.1
		c-6.1,7.5-14.5,11.9-22.4,17c-28.8,18.8-53.7,42.3-77.7,66.7C711.1,1010.4,701.3,1016,688.6,1014.3z"/>
	<path class="st2" d="M691.8,381.4c1.1,11.3-6.2,19.3-13.1,26.6c-31.9,33.5-64.3,66.6-96.7,99.6c-7.3,7.4-16,12.2-26,15.9
		c-7.8,2.9-13.8,0.9-18.3-4c-4.8-5.4-6.7-12.3-2.6-19.9c5.3-9.9,13.9-16.7,21.8-24c33.4-30.9,69.1-59.3,96.4-96.3
		c5.4-7.4,13-13.2,23.8-13C687.6,366.4,692.4,370.8,691.8,381.4z"/>
	<path class="st2" d="M2248.9,590.8c-9.4-0.6-19.7-2.3-22.9-14.6c-2.7-10.2,5.4-22.1,18.4-26.2c17.2-5.3,34.3-10.8,45.9-25.6
		c5.3-6.8,10.7-13.4,16.9-19.2c10.6-10,20.6-10.5,30.6-0.5c8.6,8.6,17,17.6,23.9,27.5c5.2,7.5,10.5,16.7,4,26.1
		c-7.2,10.4-17.8,16.5-30.4,12.7c-17.2-5.1-32.6-1.6-47.8,6.2C2275.7,583.4,2264.3,591,2248.9,590.8z"/>
	<path class="st2" d="M787.7,417.2c-2.7-9.6,3.9-17,9.2-22.5c33.7-34.7,66.8-70.2,105-100.2c5.7-4.5,12.3-5.2,19.2-4.5
		c9,0.9,13.6,8.8,11.9,17.8c-2.6,14.4-13.6,22.5-23.6,30.2c-27.6,21.4-52,45.8-74.5,72.4c-6.1,7.3-13.1,14-20.3,20.2
		c-4.9,4.1-11.7,6.6-17.6,3.3C791.2,430.6,785.7,425.7,787.7,417.2z"/>
	<path class="st2" d="M1039,586.3c-3.3,10.4-9.1,22.2-19.5,30.3c-18.8,14.7-35.5,30.9-49.2,50.7c-10,14.3-22.4,27-39.8,33.5
		c-9.5,3.5-18.2,3.2-24.4-4.7c-6.7-8.6-5.1-18,2.6-25.6c8.4-8.2,16.9-16.4,26.2-23.4c21.5-16.2,36-38.5,52.2-59.3
		c6.7-8.6,13.8-16.7,23.8-21.6C1024.3,559.8,1039.1,569,1039,586.3z"/>
	<path class="st2" d="M372.8,1077.2c-5.2,22.7-11.1,47.5-28.8,67.8c-7.6,8.7-17,8.7-25.5,3.4c-8.5-5.3-12.1-14.3-8.2-24.3
		c3.1-7.8,7.5-15,11.2-22.5c9.4-18.9,9.3-37.7,0.1-56.7c-4.3-8.8-9.2-17.5-11.8-26.7c-2.9-10.4-2.1-22.5,8.9-27.2
		c10.7-4.5,21.5-0.4,26.6,11.6C355.2,1026.1,371,1047.5,372.8,1077.2z"/>
	<path class="st2" d="M720.3,743.7c9.9,0,16.8,3.2,20.4,10.8c5.6,11.8,1.9,22.7-5.8,32.1c-7.4,9.1-16.7,16.2-27.1,21.9
		c-23.2,12.7-39.6,33.7-60.3,49.4c-4,3-8.5,4.6-13,6.5c-8.8,3.7-16.8,1.9-21.2-5c-4.7-7.3-3.2-15.8,3.4-22.9
		c14.7-16.1,33.4-27.6,48.5-43c13.3-13.6,26-27.7,39-41.5C709,746.8,714.5,743.3,720.3,743.7z"/>
	<path class="st2" d="M320.6,1963.4c-9.8-0.2-16.7-4.9-21.1-13.6c-6.5-12.9-6.1-25.6,3.5-36.2c16.3-18,36.1-32.3,55.4-46.9
		c11.7-8.8,34.3-5.4,45.3,4.1c14.5,12.6,11.5,28.5-6.7,35.1c-2.9,1-5.9,2-8.9,2.7c-17.5,3.9-31.4,11.9-38.2,29.7
		c-1.9,4.9-5.5,9.1-8.1,13.8C337.3,1960.6,330,1963.8,320.6,1963.4z"/>
	<path class="st2" d="M1074.6,177.8c1,17-11.4,24.5-21,32.4c-10.9,9-20.5,18.9-30.5,28.7c-13.5,13.2-27.7,25.5-42.7,37
		c-4.7,3.6-10.3,5.3-16.1,5.5c-13.6,0.6-20.7-10.6-16-23.3c3.8-10.4,11.2-17.9,19.4-23.7c24-17,45.2-37,65.6-57.9
		c6.3-6.4,12.9-12,22.7-12.9C1068.6,162.5,1074.6,167,1074.6,177.8z"/>
	<path class="st2" d="M2635.5,381.3c0,0.3,0.8,3.8-1.1,7.4c-11.4,21.6-27,40-45.3,55.6c-15.4,13.1-28.7,7.2-40.9-8.8
		c-7.9-10.3-13.1-21.8,4-35.7c14.6-11.8,28-24.6,39.6-39.5c7.6-9.8,18.2-12.8,29.8-7.3C2632.1,357.8,2637,366.3,2635.5,381.3z"/>
	<path class="st2" d="M2208.7,735.5c-16.4,0.1-26.1-14.1-22.6-27.4c5.6-21.4,23-34.6,35-51.5c10.4-14.7,20.1-29.7,38.2-36.1
		c8.8-3.2,17.1-5.3,24.8,2.5c9.7,10,9.3,18.6-2.9,31.1c-14.4,14.6-31.6,26.7-41.4,45.3c-5.4,10.3-10.4,20.7-18.9,29
		C2216.4,732.5,2211.6,735.4,2208.7,735.5z"/>
	<path class="st2" d="M909.5,801.1c-17.1,2-38.5-22.6-36.4-42.1c1.6-15,17-24.9,33.7-20.2c16.3,4.6,29.9,0.5,43.6-6.6
		c4.8-2.5,9.9-3.7,14.9-5.5c8.9-3.1,16.4-1.5,21.3,5.3c6,8.4,4.9,17.9-1.7,26.1c-2.8,3.5-6.6,5.9-10.4,8.4
		c-14.8,9.9-32,15.7-45.6,27.8C923.9,798.8,916.9,802.8,909.5,801.1z"/>
	<path class="st2" d="M1411,185.7c0.8,9.5-4.8,16.9-13.4,21.9c-18.5,10.8-33.8,24.6-45.1,43.1c-5.8,9.5-22.1,13.6-30.8,9.3
		c-11.2-5.6-14.4-15.4-9-29.6c2.2-5.7,4.9-11.9,9.1-16.2c15.5-15.8,29.5-33.4,48.2-45.7c7.2-4.7,15-8.9,25-5.8
		C1406.4,166.1,1410.9,173.2,1411,185.7z"/>
	<path class="st2" d="M1219.5,377.7c2.6,12.9-7.7,21-15.1,29.3c-9.7,10.8-18.4,21.9-26.2,34.1c-9.3,14.6-25,18.4-39.2,10.6
		c-13.7-7.5-18.1-25.3-7.2-36.4c16.8-17.3,34.9-33.2,49-53.4c5.3-7.6,16.6-11.9,27.7-6.2C1217.2,360.1,1220,367.5,1219.5,377.7z"/>
	<path class="st2" d="M844.9,2077.5c1.1,12.9-8.2,20.2-16.6,26.3c-19.7,14.4-38,30.1-55.2,47.4c-5.6,5.6-11.3,11.4-20.3,11.8
		c-17.1,0.8-24.4-9.8-17.7-25.9c5.4-13,15.9-21.2,26.6-29.7c15.8-12.6,30.5-26.6,46-39.7c3.7-3.1,8.2-5.5,12.7-7.3
		C833.3,2055.2,845.1,2063.6,844.9,2077.5z"/>
	<path class="st2" d="M1361.7,2066.1c2.4,13.7-5.1,26.4-12.2,38.7c-7.1,12.4-25.5,17.2-37.6,11.4c-18.8-9-29.4-26.4-23.2-41.9
		c5.9-14.9,15.4-28.2,26-40.1c7.1-8,17.3-11,28.1-6.4c11.4,4.8,16.3,14.7,18.9,25.9C1362.4,2057.1,1361.7,2060.9,1361.7,2066.1z"/>
	<path class="st2" d="M1774.4,1624.9c1.5,13-6.4,20.3-14.3,25.7c-25.9,17.7-47.8,39.4-68.1,63c-4.8,5.6-10.7,9.2-18.7,9.1
		c-12.4-0.1-19.7-9.7-15.2-21.5c3.4-9,9.3-16.6,16.9-22.4c21-16.1,37.7-36.7,57.2-54.3c8.8-8,18.8-14.7,32.1-12.4
		C1772.5,1613.6,1776.8,1617.3,1774.4,1624.9z"/>
	<path class="st2" d="M831.8,850.4c-16.1-4.7-36.2,0.4-56.2,0c-10.3-0.2-20-1.8-23.4-13.4c-2.6-9,5.8-22.2,16.5-26.5
		c15.3-6.1,32-2.6,47.6-6.8c12-3.2,23.9-4.6,35.6-0.1c12.6,4.9,21.2,18.8,17.3,29.5c-4.2,11.7-12.8,19-26.6,17.3
		C840.4,850.2,838.1,850.4,831.8,850.4z"/>
	<path class="st2" d="M1449.2,1982.8c3.2,20.3-19,46.5-40.2,50.8c-18.8,3.8-37.6-17.9-32.6-36.7c5.5-20.6,20.7-34.6,36.8-46.7
		c14.7-10.9,33.2,1.8,35.9,23.3C1449.5,1976.7,1449.2,1979.9,1449.2,1982.8z"/>
	<path class="st2" d="M2407.4,1870.3c-8.9,0.3-16.2-0.8-21.5-10.1c-6-10.5-5.1-19.8,0.9-28.9c10.5-16,24.3-29,40.1-39.7
		c8.3-5.6,17.3-4.9,25.4,0.5c10.7,7.1,13,18.1,11.3,29.9C2461,1840.4,2425.9,1870.3,2407.4,1870.3z"/>
	<path class="st2" d="M2493.2,448.4c7.6-1.2,14.5,2.1,21,7.7c12.1,10.4,27,17.7,34.3,33.2c5.6,12.1,2.2,21.4-6.8,30.2
		c-8.4,8.2-17,10.6-27.9,4.7c-18.7-10.1-34.5-24.1-44.1-42.2C2459.5,462.8,2470.4,448.5,2493.2,448.4z"/>
	<path class="st2" d="M1499,1968.7c-17.5,0.1-31.8-14.6-30.6-31.8c0.8-11.3,7.3-19.2,18.3-19.8c19.7-1,37.6-6.2,54.4-16.3
		c9.9-5.9,19.9-4.5,26.2,4.7c6,8.9,2.9,19-5.2,25.2c-16.2,12.4-33.4,23.5-50.1,35.4C1507.9,1969.1,1503.5,1968.6,1499,1968.7z"/>
	<path class="st2" d="M1484.8,1430.7c0.1-25.2,24.3-57,48.7-63c7.4-1.8,16.3-2.4,21.7,3.8c5.5,6.3,8.5,15.2,3.2,23.3
		c-12.4,18.9-25.1,37.7-38.5,56c-5.2,7.1-14,8.2-22.2,6C1489.5,1454.6,1484.7,1443.7,1484.8,1430.7z"/>
	<path class="st2" d="M284,1067.6c2.9,12.1-2.5,23.8-2.7,36c-0.2,11.2-8.5,19-17.1,24.5c-4.7,3-12,3-17.6-2.2
		c-7.6-7.2-11.4-15.8-7.7-25.5c4.6-12.2,4.3-24.7,4.5-37.2c0.1-6.4-3.1-12-3.1-18.6c0-11.9,2.7-21.5,15.5-24.4
		c10.2-2.3,22.7,7.1,25.5,19.2C283.5,1048.5,285.9,1057.7,284,1067.6z"/>
	<path class="st2" d="M1304.3,292.2c1.2,7.5-2.5,15-7.3,19.2c-12.9,11.4-25.2,24-41.9,30.6c-11.4,4.5-21.5,3.7-29-6.3
		c-7.7-10.3-7.8-22.2,0.3-31.8c13.5-16,30.8-27.4,51.2-32.8C1291.7,267.3,1304.5,278.1,1304.3,292.2z"/>
	<path class="st2" d="M1990.6,797.2c0.2-9.3,2.3-17.8,10.1-23.8c15-11.7,23.5-29.7,39.8-40.1c8.2-5.2,17-5.4,23.9-0.1
		c7,5.5,11.4,14.1,5.5,23.5c-14.6,23-28.3,47.2-55.2,58.1C1997.6,821.7,1990.3,815.7,1990.6,797.2z"/>
	<path class="st2" d="M2723.3,1407.5c-1-11.5,2.4-21,13.8-25.1c11.1-4,20.8-1.4,29.4,7.3c20.4,20.4,25.6,41.1,14.2,60
		c-12.8,21.1-32.2,21.9-43.6,0.4C2730.3,1436.9,2723.7,1423,2723.3,1407.5z"/>
	<path class="st2" d="M1583.1,1814.7c1.4,18.2-11.6,27.1-23,35.8c-12.7,9.7-26,18.8-40.7,25.7c-6.7,3.2-13.4,2.8-19.9,1.9
		c-10-1.4-12.6-15.7-4-25c7.3-7.9,15.2-15.7,24.2-21.5c13.5-8.6,20.6-23.6,34.3-31.7c7.2-4.2,14.2-4.8,21.6-0.6
		C1582,1803,1584.4,1808.3,1583.1,1814.7z"/>
	<path class="st2" d="M393.1,1375.4c22.9-0.5,36.2,22.1,26.8,46.2c-1.8,4.5-4.5,8.7-7.2,12.8c-12.3,18.6-21.8,22-37.7,13.8
		c-14.6-7.5-23.9-30.2-18.5-45C361.1,1390.4,380.6,1375.7,393.1,1375.4z"/>
	<path class="st2" d="M2201.2,606.6c1.6,6.9-3,13.2-6.8,19c-10.3,16-18.5,34.4-38.3,41.5c-14,5.1-25.9-3.7-26-18.7
		c0-9.3,3.8-17.1,9-24.7c7.9-11.5,14.7-23.7,25.2-33c7.8-6.9,16.9-7.3,26.5-3.7C2199.7,590.4,2201.2,597.5,2201.2,606.6z"/>
	<path class="st2" d="M1255.1,2124.6c19.1,0,35.8,15.5,35.6,33.1c-0.2,16.9-18.9,35-36.4,35.2c-18.1,0.2-31.9-15.1-32-35.4
		C1222.2,2137.9,1235.4,2124.6,1255.1,2124.6z"/>
	<path class="st2" d="M1156.6,972.5c-0.1-12.6,34.7-63.2,46.5-67.2c7.9-2.7,15.7-2.8,21.7,4c6.2,7,7.9,14.9,2.8,23.4
		c-12.6,21-24.3,43.1-47.6,54.6C1166.8,993.9,1156.8,987.2,1156.6,972.5z"/>
	<path class="st2" d="M1909.2,2496.5c-14.6,0.1-22.1-11.9-14.8-25.1c11.8-21.2,29.1-37.6,49.2-51.1c7.7-5.1,17.1-5.6,23.8,0.9
		c6.7,6.5,6.3,16,1.2,23.7c-12.7,19.5-29.1,35.5-48.3,48.5C1916.9,2495.6,1913.1,2497.5,1909.2,2496.5z"/>
	<path class="st2" d="M2520.6,847.6c-4.6-1.4-10.2-2.3-13.7-9.2c-3.9-7.7-3.1-15.2,1.8-20.1c14.2-14.5,29.4-28.1,44.8-41.4
		c5.9-5.1,13.5-4.4,20.2-0.2c7,4.4,8.3,11.4,7.6,18.9C2579.2,815.6,2542,848.2,2520.6,847.6z"/>
	<path class="st2" d="M247.3,746.5c8.4-0.8,16.1,2.1,19.5,9.3c3.6,7.6,1.4,15.8-4.6,22.4c-9.2,10-19.5,18.3-31.9,24
		c-14.9,6.8-28.7,4.3-35.3-7.4c-7-12.4-1.9-28.6,11.6-36.9C212.2,754.4,240.3,746.5,247.3,746.5z"/>
	<path class="st2" d="M1184.6,2190.2c14.2,0.1,26.2,14.6,26.1,31.6c-0.1,18.1-15.3,36.4-30.5,36.7c-14.9,0.3-31.7-17.5-31.3-33
		C1149.2,2208,1167.3,2190.1,1184.6,2190.2z"/>
	<path class="st2" d="M1610.4,1777.4c-1.5-8.2,2.6-16.2,10.5-22.7c6.6-5.3,13.4-6.4,20.9-1.6c14,8.8,26.6,45.5,20.7,61.1
		c-5.5,14.4-21.5,18.3-33.1,8C1616.7,1810.9,1610.3,1796.8,1610.4,1777.4z"/>
	<path class="st2" d="M1454.7,682.2c0-20.5,28.8-48.5,49.2-47.8c11.4,0.4,19.3,10.4,15.3,21.2c-7.7,20.8-22.2,35.2-43.6,41.9
		C1463.1,701.4,1454.7,695,1454.7,682.2z"/>
	<path class="st2" d="M2349.2,1875.8c15.5,0.2,29.9,15,29.7,30.5c-0.2,15.5-15,29.9-30.5,29.7c-17.6-0.3-27.3-11.5-26.9-31.2
		C2321.8,1889.2,2334.8,1875.6,2349.2,1875.8z"/>
	<path class="st2" d="M1329.5,833.9c-12.2,0.4-21.1-11.7-16.9-23.5c6.7-18.9,20.1-31.1,38.5-38.3c7.5-2.9,13.3,0.3,18.1,5.3
		c4.7,4.8,7.2,9.8,4,17.9C1365.8,814.6,1345.8,833.5,1329.5,833.9z"/>
	<path class="st2" d="M1367.2,2281.3c-0.9,12-11.3,21.8-22.2,30.2c-7.8,6-16,13-27.3,12.7c-12.8-0.3-20-10-14.9-21.6
		c8.7-19.9,25.1-32.4,44.3-40.6C1357.9,2257.5,1367.2,2265.7,1367.2,2281.3z"/>
	<path class="st2" d="M1878.5,2534c-0.2,18.6-30.5,46.5-48.7,44.4c-9.2-1.1-14.7-6.6-14.1-16.4c1-16.2,31.5-43.4,47.9-43.8
		C1874.9,2518,1879.4,2523.2,1878.5,2534z"/>
	<path class="st2" d="M1036.3,659c15.9,0,24,14.1,17.5,30.4c-4.3,10.9-11.5,19-22.2,24c-15.6,7.3-30.8-2-30.8-18.9
		C1000.8,677.8,1019.5,659,1036.3,659z"/>
	<path class="st2" d="M2406.3,119.8c-0.1,0.7,0.2,2.7-0.5,4.2c-8.1,17.3-21,30.2-37.2,39.7c-5.9,3.5-12.5,3.2-18.2-2.2
		c-6-5.7-5.7-12.8-2.9-18.8c7.9-17.3,20.9-30.4,38.4-38C2396.1,100.3,2406.1,107.7,2406.3,119.8z"/>
	<path class="st2" d="M1241.4,873.5c0.2-18.7,27-40.2,42.2-34.7c12,4.4,14.6,12.9,11.9,23.3c-3.9,14.9-13.6,25.3-28.6,30.2
		C1254,896.4,1241.3,887,1241.4,873.5z"/>
	<path class="st2" d="M1154.7,1299.8c12.9,2.1,21.6,11.2,17.4,23c-5.5,15.6-15.1,26.8-31.4,31.8c-7.8,2.4-14.3,0.2-19.2-5.2
		c-4.4-4.8-6.2-10.7-3.5-18.1C1123.6,1315.8,1141.2,1299.9,1154.7,1299.8z"/>
	<path class="st2" d="M1264.6,106.6c-13.5-0.1-19.5-9.3-14.1-23.5c5.5-14.5,15.9-25,30.4-30.3c14.2-5.3,25.5,4.4,23.4,19.2
		C1301.9,88.3,1280.9,106.7,1264.6,106.6z"/>
	<path class="st2" d="M1399.8,760.2c-7.2-0.4-13.2-5.4-13.5-16.5c-0.6-19.1,22.3-38.6,38.9-32.9c10.9,3.8,14.8,11.6,11.2,22.8
		C1431.7,747.9,1416.7,760,1399.8,760.2z"/>
	<path class="st2" d="M1156.6,2446.7c0.1-15,15.1-30.9,30.4-32.2c10.5-0.9,18.5,6.2,18.5,16.4c-0.1,12.7-18.5,32-31.3,32.8
		C1160.2,2464.5,1156.6,2461,1156.6,2446.7z"/>
	<path class="st2" d="M836.7,2669.5c0.2,15.5-13.3,29.5-28.7,29.2c-10.5-0.2-17-5.9-17.6-16.3c-0.7-12.7,17-30,29.7-30
		C829.6,2652.3,836.6,2659.5,836.7,2669.5z"/>
	<path class="st2" d="M1036.3,1261.8c0,11.7-8.3,20.4-19.7,20.6c-11.4,0.2-18.8-7-18.4-18c0.4-10.5,10.4-20,21.2-20.3
		C1030.2,1243.9,1036.3,1250.2,1036.3,1261.8z"/>
	<path class="st2" d="M57.5,1028.6c-0.4,10.4-5.2,15.6-14.8,15.9c-8.3,0.2-12.6-3.9-12.6-12.2c0-9.7,5.1-14.7,14.7-15
		C53.1,1016.9,57.1,1021.4,57.5,1028.6z"/>
	<path class="st2" d="M209,164.1c15.3,0.2,23.6,15.3,13.9,29.1c-15.2,21.6-33.6,41.1-56.2,55.6c-7.2,4.6-14,4.3-20.5-2.6
		c-6.8-7.2-5-14.8-0.3-20.8c15-18.9,30.8-37.2,46.7-55.4C196.8,165.1,203,163.2,209,164.1z"/>
	<path class="st2" d="M150.4,157.7c-0.2,20.3-22.7,45-40.6,44.6c-14-0.3-21-10.5-17-24.1c5.4-18.3,16.7-31.6,34.5-38
		C140.5,135.6,150.5,143.9,150.4,157.7z"/>
	<path class="st2" d="M248.8,128.6c0-14.3,13.5-26.9,29.2-27.6c12.7-0.5,15.8,8.2,16.6,16.8c1.2,13.1-16.5,29.8-29.5,29.9
		C253.1,147.7,248.4,141.2,248.8,128.6z"/>
</g>
</svg>
